<svg width="14" height="15" viewBox="0 0 14 15" fill="none" xmlns="http://www.w3.org/2000/svg">
<path d="M12.477 6.31765H11.456V4.20165C11.3745 3.11223 10.8667 2.09889 10.0428 1.3815C9.21884 0.664107 8.14528 0.300529 7.055 0.36965C5.96469 0.301351 4.89139 0.665512 4.06776 1.38319C3.24413 2.10088 2.73653 3.11425 2.655 4.20365C2.66754 4.36038 2.7411 4.50592 2.85986 4.60896C2.97861 4.71201 3.13307 4.76432 3.29 4.75465C3.44676 4.76405 3.60096 4.71161 3.7195 4.6086C3.83804 4.50558 3.91146 4.36019 3.924 4.20365C3.98145 3.42791 4.34235 2.70609 4.92846 2.19467C5.51457 1.68326 6.27863 1.42347 7.055 1.47165C7.83161 1.42237 8.59631 1.68142 9.18307 2.19254C9.76984 2.70367 10.1313 3.42562 10.189 4.20165V6.31765H1.64C1.48303 6.30656 1.32799 6.35757 1.20828 6.4597C1.08857 6.56183 1.01377 6.7069 1 6.86365V13.2577C1.03148 13.6498 1.21579 14.014 1.5132 14.2715C1.81062 14.5291 2.19734 14.6595 2.59 14.6347H11.526C11.9176 14.6597 12.3032 14.529 12.5989 14.2711C12.8946 14.0133 13.0765 13.649 13.105 13.2577V6.86365C13.0997 6.78654 13.0792 6.71125 13.0447 6.64206C13.0103 6.57288 12.9625 6.51116 12.9042 6.46045C12.8459 6.40974 12.7781 6.37103 12.7048 6.34652C12.6315 6.32202 12.5541 6.31221 12.477 6.31765ZM11.839 13.2577C11.8329 13.3353 11.7968 13.4075 11.7384 13.459C11.6799 13.5105 11.6038 13.5373 11.526 13.5337H2.59C2.51074 13.5387 2.43262 13.5127 2.37216 13.4612C2.31169 13.4097 2.27363 13.3367 2.266 13.2577V7.41865H11.839V13.2577Z" fill="#6E6A65" stroke="#6E6A65" stroke-width="0.3"/>
<path d="M7.05293 12.0869C7.19031 12.0869 7.32206 12.0323 7.4192 11.9352C7.51635 11.838 7.57093 11.7062 7.57093 11.5688V9.70288C7.57401 9.63301 7.5629 9.56327 7.53828 9.4978C7.51366 9.43234 7.47604 9.37255 7.42769 9.32202C7.37933 9.27149 7.32123 9.23121 7.25691 9.20374C7.19259 9.17626 7.12336 9.16211 7.05342 9.16211C6.98348 9.16211 6.91425 9.17626 6.84993 9.20374C6.78561 9.23121 6.72757 9.27149 6.67921 9.32202C6.63085 9.37255 6.59318 9.43234 6.56855 9.4978C6.54393 9.56327 6.53283 9.63301 6.5359 9.70288V11.5688C6.5359 11.7061 6.59034 11.8377 6.68727 11.9348C6.7842 12.0319 6.91572 12.0866 7.05293 12.0869Z" fill="#6E6A65" stroke="#6E6A65" stroke-width="0.3"/>
<path d="M12.477 6.31765H11.456V4.20165C11.3745 3.11223 10.8667 2.09889 10.0428 1.3815C9.21884 0.664107 8.14528 0.300529 7.055 0.36965C5.96469 0.301351 4.89139 0.665512 4.06776 1.38319C3.24413 2.10088 2.73653 3.11425 2.655 4.20365C2.66754 4.36038 2.7411 4.50592 2.85986 4.60896C2.97861 4.71201 3.13307 4.76432 3.29 4.75465C3.44676 4.76405 3.60096 4.71161 3.7195 4.6086C3.83804 4.50558 3.91146 4.36019 3.924 4.20365C3.98145 3.42791 4.34235 2.70609 4.92846 2.19467C5.51457 1.68326 6.27863 1.42347 7.055 1.47165C7.83161 1.42237 8.59631 1.68142 9.18307 2.19254C9.76984 2.70367 10.1313 3.42562 10.189 4.20165V6.31765H1.64C1.48303 6.30656 1.32799 6.35757 1.20828 6.4597C1.08857 6.56183 1.01377 6.7069 1 6.86365V13.2577C1.03148 13.6498 1.21579 14.014 1.5132 14.2715C1.81062 14.5291 2.19734 14.6595 2.59 14.6347H11.526C11.9176 14.6597 12.3032 14.529 12.5989 14.2711C12.8946 14.0133 13.0765 13.649 13.105 13.2577V6.86365C13.0997 6.78654 13.0792 6.71125 13.0447 6.64206C13.0103 6.57288 12.9625 6.51116 12.9042 6.46045C12.8459 6.40974 12.7781 6.37103 12.7048 6.34652C12.6315 6.32202 12.5541 6.31221 12.477 6.31765ZM11.839 13.2577C11.8329 13.3353 11.7968 13.4075 11.7384 13.459C11.6799 13.5105 11.6038 13.5373 11.526 13.5337H2.59C2.51074 13.5387 2.43262 13.5127 2.37216 13.4612C2.31169 13.4097 2.27363 13.3367 2.266 13.2577V7.41865H11.839V13.2577Z" fill="#6E6A65" stroke="#6E6A65" stroke-width="0.3"/>
<path d="M2.61084 3.92188H3.96484V6.21094L2.61084 6.45312V3.92188Z" fill="#6E6A65"/>
</svg>
