<svg width="14" height="15" viewBox="0 0 14 15" fill="none" xmlns="http://www.w3.org/2000/svg">
<path d="M3.6 4.033C3.60986 3.23166 3.93257 2.46592 4.49924 1.89924C5.06592 1.33257 5.83166 1.00986 6.633 1C7.43753 1 8.20912 1.3196 8.77801 1.88849C9.3469 2.45738 9.6665 3.22897 9.6665 4.0335C9.6665 4.83803 9.3469 5.60962 8.77801 6.17851C8.20912 6.7474 7.43753 7.067 6.633 7.067C5.83149 7.05714 5.0656 6.73429 4.4989 6.1674C3.93219 5.60051 3.6096 4.83451 3.6 4.033V4.033ZM6.633 8.8C5.4582 8.76526 4.29891 9.075 3.29799 9.69105C2.29707 10.3071 1.49826 11.2025 1 12.267V14H12.267V12.267C11.7687 11.2024 10.9697 10.3068 9.96859 9.69077C8.96747 9.07471 7.80797 8.76506 6.633 8.8V8.8Z" stroke="#6E6A65" stroke-width="1.6"/>
</svg>
