<svg width="22" height="22" viewBox="0 0 22 22" fill="none" xmlns="http://www.w3.org/2000/svg">
<path d="M11 22C17.0751 22 22 17.0751 22 11C22 4.92487 17.0751 0 11 0C4.92487 0 0 4.92487 0 11C0 17.0751 4.92487 22 11 22Z" fill="#E8E8E8"/>
<path d="M7.24761 14.89C7.40375 15.0431 7.61425 15.1279 7.83288 15.1258C8.05151 15.1238 8.26039 15.035 8.41361 14.879L11.0036 12.239L13.5946 14.879C13.6694 14.9606 13.7599 15.0264 13.8606 15.0723C13.9613 15.1182 14.0703 15.1433 14.1809 15.1463C14.2916 15.1492 14.4017 15.1298 14.5047 15.0893C14.6078 15.0488 14.7016 14.9879 14.7806 14.9104C14.8596 14.8329 14.9222 14.7402 14.9647 14.638C15.0071 14.5357 15.0286 14.426 15.0277 14.3153C15.0269 14.2046 15.0038 14.0952 14.9598 13.9936C14.9158 13.8921 14.8518 13.8004 14.7716 13.724L12.1596 11.063L14.7716 8.40103C14.9162 8.24332 14.9938 8.03562 14.9882 7.82175C14.9825 7.60787 14.894 7.40456 14.7413 7.25471C14.5886 7.10486 14.3836 7.0202 14.1697 7.01858C13.9558 7.01696 13.7496 7.09851 13.5946 7.24603L11.0036 9.88603L8.41361 7.24603C8.33881 7.16443 8.24834 7.09872 8.14761 7.05281C8.04687 7.0069 7.93793 6.98173 7.82726 6.9788C7.7166 6.97588 7.60649 6.99526 7.50347 7.03578C7.40045 7.0763 7.30664 7.13714 7.22762 7.21467C7.14861 7.29221 7.08602 7.38485 7.04356 7.48709C7.0011 7.58932 6.97965 7.69907 6.98049 7.80977C6.98133 7.92046 7.00444 8.02986 7.04844 8.13144C7.09244 8.23302 7.15643 8.3247 7.23661 8.40103L9.84861 11.063L7.23661 13.724C7.08357 13.8802 6.99875 14.0907 7.00082 14.3093C7.00288 14.5279 7.09165 14.7368 7.24761 14.89Z" fill="#6E6A65"/>
</svg>
