<svg xmlns="http://www.w3.org/2000/svg" width="15" height="15" viewBox="0 0 15 15">
    <path data-name="Path 88215" d="M0 0h15v15H0z" style="fill:none"/>
    <path data-name="Path 88216" d="M12.6 2H5.228A1.235 1.235 0 0 0 4 3.242v8.7h1.228v-8.7H12.6zm1.842 2.485H7.684a1.235 1.235 0 0 0-1.228 1.242v8.7a1.235 1.235 0 0 0 1.228 1.242h6.754a1.235 1.235 0 0 0 1.228-1.242v-8.7a1.235 1.235 0 0 0-1.227-1.242zm0 9.939H7.684v-8.7h6.754z" transform="translate(-2.287 -1.333)" style="fill:#5f5f5f"/>
</svg>
