<svg width="10" height="10" viewBox="0 0 10 10" fill="none" xmlns="http://www.w3.org/2000/svg">
<path fill-rule="evenodd" clip-rule="evenodd" d="M7.43117 0.0132628C7.22392 0.0812435 7.13759 0.164085 3.77598 3.52083C1.54449 5.74908 0.370047 6.93767 0.339866 6.99834C0.270911 7.13692 0.250914 7.23235 0.1856 7.73437C0.1527 7.98743 0.0944358 8.43258 0.0561225 8.72359C-0.0185226 9.29081 -0.0186378 9.42832 0.0553623 9.59538C0.155419 9.8212 0.431007 10.0009 0.675976 10C0.735669 9.99977 1.0178 9.96933 1.3029 9.93236C1.58801 9.89539 2.02862 9.83845 2.28204 9.80583C2.79965 9.73923 2.9277 9.70541 3.07688 9.59602C3.1339 9.5542 4.69018 8.01052 6.53529 6.16561C9.25067 3.45055 9.90052 2.78931 9.94501 2.69621C9.99099 2.59998 9.99998 2.54548 9.99998 2.36263C9.99998 2.00909 10.0183 2.03363 8.98146 1.00081C7.97818 0.00146117 7.99329 0.0129868 7.67308 0.0011851C7.57171 -0.00256476 7.46285 0.00288744 7.43117 0.0132628ZM8.29517 1.71853L8.93997 2.36272L8.45052 2.85147L7.96104 3.34024L7.31034 2.69048L6.65963 2.04072L7.14312 1.55752C7.40903 1.29178 7.63193 1.07434 7.63847 1.07434C7.64499 1.07434 7.94051 1.36423 8.29517 1.71853ZM6.61335 3.39792L7.25818 4.04213L4.8882 6.40878L2.51821 8.7754L2.1352 8.82562C1.92453 8.85325 1.5934 8.89701 1.39934 8.92287C1.20529 8.94872 1.0419 8.96524 1.03621 8.95958C1.03054 8.95392 1.06865 8.61899 1.12088 8.21529L1.21582 7.48131L3.58045 5.11752C4.88101 3.81742 5.95037 2.75372 5.95682 2.75372C5.96327 2.75372 6.25869 3.04361 6.61335 3.39792Z" fill="#4A4A4A"/>
</svg>
