<svg width="14" height="11" viewBox="0 0 14 11" fill="none" xmlns="http://www.w3.org/2000/svg">
<path d="M13.238 4.03125C13.1737 4.03125 13.1099 4.04392 13.0505 4.06855C12.991 4.09317 12.937 4.12927 12.8915 4.17477C12.846 4.22027 12.8099 4.27429 12.7853 4.33374C12.7607 4.39319 12.748 4.4569 12.748 4.52125V8.43725C12.748 8.56721 12.6964 8.69184 12.6045 8.78373C12.5126 8.87562 12.388 8.92725 12.258 8.92725H2.469C2.33904 8.92725 2.21441 8.87562 2.12252 8.78373C2.03062 8.69184 1.979 8.56721 1.979 8.43725V4.52125C1.9733 4.39525 1.91924 4.27631 1.82807 4.18916C1.73689 4.10201 1.61562 4.05338 1.4895 4.05338C1.36338 4.05338 1.24211 4.10201 1.15093 4.18916C1.05976 4.27631 1.0057 4.39525 1 4.52125V8.43725C1.00053 8.82669 1.15547 9.20003 1.43084 9.4754C1.70622 9.75078 2.07956 9.90572 2.469 9.90625H12.259C12.6484 9.90572 13.0218 9.75078 13.2972 9.4754C13.5725 9.20003 13.7275 8.82669 13.728 8.43725V4.52125C13.728 4.39129 13.6764 4.26666 13.5845 4.17477C13.4926 4.08287 13.368 4.03125 13.238 4.03125Z" fill="#6E6A65" stroke="#6E6A65" stroke-width="0.5"/>
<path d="M7.07001 6.86975C7.15473 6.93313 7.2577 6.96738 7.36351 6.96738C7.46931 6.96738 7.57228 6.93313 7.65701 6.86975L13.438 2.53275C13.5277 2.46481 13.5912 2.36809 13.618 2.25883C13.6447 2.14958 13.6331 2.03444 13.585 1.93275C13.512 1.78225 13.4143 1.64502 13.296 1.52675C13.0214 1.25068 12.6484 1.09494 12.259 1.09375H2.46901C2.07955 1.09414 1.7062 1.24917 1.43101 1.52475C1.31271 1.64302 1.21503 1.78025 1.14201 1.93075C1.09392 2.03244 1.08228 2.14758 1.10905 2.25683C1.13581 2.36609 1.19936 2.46281 1.28901 2.53075L7.07001 6.86975ZM2.47001 2.06975H12.26C12.3054 2.06261 12.3516 2.06261 12.397 2.06975L7.36401 5.86675L2.33101 2.07275C2.37639 2.06561 2.42262 2.06561 2.46801 2.07275L2.47001 2.06975Z" fill="#6E6A65" stroke="#6E6A65" stroke-width="0.5"/>
</svg>
