<svg xmlns="http://www.w3.org/2000/svg" width="18.281" height="12.033" viewBox="0 0 18.281 12.033"><g><g><g><g><path fill="#656565" d="M29.18 100.3c-2.384-3.608-5.586-5.6-9.015-5.6s-6.63 1.989-9.015 5.6a.763.763 0 0 0 0 .84c2.384 3.608 5.586 5.6 9.015 5.6s6.63-1.989 9.015-5.6a.763.763 0 0 0 0-.84zm-9.015 4.914c-2.769 0-5.4-1.589-7.459-4.492 2.052-2.9 4.686-4.492 7.459-4.492s5.4 1.589 7.459 4.492c-2.056 2.899-4.686 4.489-7.458 4.489z" transform="translate(-822 -422.088) translate(822 422.088) translate(-11.025 -94.7)"></path></g></g></g><g fill="#656565" stroke="#fafafa" transform="translate(-822 -422.088) translate(827.133 424.096)"><circle cx="4.012" cy="4.012" r="4.012" stroke="none"></circle><circle cx="4.012" cy="4.012" r="3.512" fill="none"></circle></g></g></svg>