<svg xmlns="http://www.w3.org/2000/svg" width="32" height="32" viewBox="0 0 32 32" fill="none">
  <path fill-rule="evenodd" clip-rule="evenodd" d="M14.3988 0.0511707C12.4681 0.253575 10.6861 0.779828 8.847 1.69074C0.885499 5.63428 -2.29547 15.3333 1.76824 23.275C5.05159 29.6918 12.1966 33.1262 19.2274 31.6671C24.0191 30.6727 28.1421 27.4922 30.3426 23.0927C33.0832 17.6131 32.3833 10.9561 28.5525 6.06595C28.0391 5.41061 26.6701 4.03425 26.0056 3.5052C23.2685 1.32613 19.9861 0.116556 16.52 0.00957049C15.7875 -0.0130018 14.833 0.00574617 14.3988 0.0511707ZM18.2496 3.08985C19.9549 3.37882 21.9547 4.19711 23.4412 5.21399C24.4188 5.88285 25.936 7.37953 26.6315 8.36143C27.7472 9.93617 28.5667 11.8834 28.9041 13.7611C29.1155 14.9377 29.1172 16.9622 28.9078 18.1914C28.0185 23.4096 24.0509 27.5626 18.7785 28.7939C17.6197 29.0645 15.1914 29.1315 13.9669 28.9266C8.28646 27.9759 3.9762 23.6593 3.0653 18.0089C2.86965 16.7958 2.91674 14.4123 3.15734 13.3453C3.74754 10.728 4.91283 8.58883 6.7434 6.7628C9.82299 3.69073 13.9748 2.36539 18.2496 3.08985ZM22.8258 10.9703C22.5576 11.0481 21.8199 11.7048 16.045 17.0065L14.5702 18.3604L12.6878 16.4878C11.0719 14.8806 10.7545 14.606 10.4467 14.5492C9.4082 14.3578 8.55018 15.2691 8.75161 16.3494C8.80747 16.649 9.15903 17.0432 11.2031 19.0982C12.5156 20.4178 13.7247 21.5615 13.8901 21.6399C14.2461 21.8089 14.81 21.8187 15.1575 21.6618C15.2944 21.6 17.4447 19.6816 19.9358 17.3988C23.7094 13.9406 24.4904 13.1826 24.6171 12.8557C24.8898 12.1512 24.5693 11.3648 23.8822 11.0528C23.4521 10.8574 23.2649 10.8428 22.8258 10.9703Z" fill="#289A00"/>
</svg>
