<svg xmlns="http://www.w3.org/2000/svg" width="12" height="13" viewBox="0 0 12 13" fill="none">
  <path fill-rule="evenodd" clip-rule="evenodd" d="M5.3182 0.536861C4.20738 0.67108 3.13247 1.11528 2.27365 1.79502C2.0216 1.99451 1.55515 2.45522 1.35102 2.70632C0.656163 3.56099 0.202346 4.5984 0.0431601 5.69592C-0.0087667 6.05385 -0.0152152 6.89089 0.0313257 7.22689C0.36542 9.6379 1.9923 11.5559 4.29394 12.2522C5.97656 12.7612 7.87131 12.4756 9.33671 11.492C9.81026 11.1741 10.3726 10.6575 10.7171 10.2237C11.242 9.5628 11.6502 8.72711 11.8452 7.91401C11.9767 7.36609 12.0022 7.127 11.9999 6.46743C11.9979 5.92865 11.991 5.82758 11.9346 5.5151C11.7774 4.64418 11.5003 3.93326 11.0464 3.23673C10.223 1.97295 8.9276 1.04389 7.4856 0.682942C6.79534 0.510148 5.98898 0.455804 5.3182 0.536861ZM6.65758 1.74338C8.24004 1.96179 9.61294 2.95436 10.3206 4.39164C10.6568 5.07461 10.8065 5.72517 10.8065 6.50359C10.8065 7.10597 10.7079 7.66158 10.5089 8.18071C9.65501 10.4079 7.34907 11.6761 5.03024 11.1938C3.70538 10.9183 2.59429 10.1307 1.87937 8.96025C1.38432 8.14978 1.13478 7.10074 1.21289 6.15844C1.28672 5.26768 1.54025 4.53248 2.01841 3.82262C2.79164 2.67467 4.03382 1.90962 5.41087 1.73323C5.69345 1.69702 6.36111 1.70247 6.65758 1.74338ZM5.86742 3.51243C5.66411 3.56183 5.492 3.72864 5.43208 3.9344C5.29316 4.41145 5.78021 4.84307 6.23641 4.64715C6.7509 4.42621 6.71042 3.68378 6.17509 3.52296C6.05648 3.48733 5.98132 3.48475 5.86742 3.51243ZM5.79141 5.33589C5.67036 5.38049 5.53605 5.50598 5.46268 5.64302L5.40853 5.74414L5.40165 7.32149C5.39691 8.40913 5.4031 8.93889 5.4216 9.02776C5.4926 9.36927 5.84897 9.56822 6.20274 9.46388C6.33541 9.42475 6.53549 9.22502 6.57469 9.09259C6.59649 9.01893 6.60391 8.57775 6.60352 7.3808C6.60302 5.81066 6.60169 5.7654 6.55379 5.65976C6.45467 5.4412 6.27902 5.32138 6.03718 5.30739C5.94627 5.30214 5.85394 5.31284 5.79141 5.33589Z" fill="#6E6A65"/>
</svg>
