<svg xmlns="http://www.w3.org/2000/svg" width="13.227" height="9.311" viewBox="0 0 13.227 9.311">
    <g data-name="mail email e-mail letter">
        <path data-name="Path 91631" d="M15.238 13a.49.49 0 0 0-.49.49v3.916a.49.49 0 0 1-.49.49H4.469a.49.49 0 0 1-.49-.49V13.49a.49.49 0 0 0-.979 0v3.916a1.471 1.471 0 0 0 1.469 1.469h9.79a1.471 1.471 0 0 0 1.469-1.469V13.49a.49.49 0 0 0-.49-.49z" transform="translate(-2.75 -9.813)" style="fill:#6e6a65;stroke:#6e6a65;stroke-width:.5px"/>
        <path data-name="Path 91632" d="M9.168 12.776a.49.49 0 0 0 .587 0l5.781-4.337a.49.49 0 0 0 .147-.6 1.5 1.5 0 0 0-.289-.406A1.469 1.469 0 0 0 14.357 7h-9.79a1.469 1.469 0 0 0-1.038.431 1.5 1.5 0 0 0-.289.406.49.49 0 0 0 .147.6zm-4.6-4.8h9.79a.441.441 0 0 1 .137 0l-5.033 3.797-5.033-3.794a.441.441 0 0 1 .137 0z" transform="translate(-2.848 -6.75)" style="fill:#6e6a65;stroke:#6e6a65;stroke-width:.5px"/>
    </g>
</svg>
