<svg xmlns="http://www.w3.org/2000/svg" width="63.184" height="43.08" viewBox="0 0 63.184 43.08">
    <g data-name="Group 10545">
        <path data-name="Path 91640" d="M324.956 266.632a10.77 10.77 0 1 0-11.88 0 17.245 17.245 0 0 0-11.291 16.155h2.872a14.36 14.36 0 0 1 28.72 0h2.872a17.245 17.245 0 0 0-11.293-16.155zm-13.838-8.975a7.9 7.9 0 1 1 7.9 7.9 7.907 7.907 0 0 1-7.9-7.9z" transform="translate(-287.424 -239.707)" style="fill:#007aff"/>
        <path data-name="Path 91641" d="M356.417 253.952a10.759 10.759 0 1 0-15.2-14.441 13.682 13.682 0 0 1 2.539 1.345 7.948 7.948 0 0 1 1.928-2.139 7.884 7.884 0 1 1 4.8 14.157c-.254 0-.5-.015-.753-.039a13.562 13.562 0 0 1-.484 3c.411-.036.817-.088 1.236-.088a14.448 14.448 0 0 1 14.36 14.36h2.872a17.245 17.245 0 0 0-11.298-16.155z" transform="translate(-304.525 -234.207)" style="fill:#f47a00"/>
        <path data-name="Path 91642" d="M293.657 255.747c.42 0 .826.053 1.236.088a13.563 13.563 0 0 1-.484-3c-.248.024-.5.039-.753.039a7.893 7.893 0 1 1 6.726-12.018 13.7 13.7 0 0 1 2.539-1.345 10.761 10.761 0 1 0-15.2 14.441 17.246 17.246 0 0 0-11.292 16.155h2.871a14.448 14.448 0 0 1 14.36-14.36z" style="fill:#f47a00" transform="translate(-276.425 -234.207)"/>
    </g>
</svg>
