<svg xmlns="http://www.w3.org/2000/svg" width="14" height="15" viewBox="0 0 14 15" fill="none">
  <path fill-rule="evenodd" clip-rule="evenodd" d="M3.12113 0.519714C2.38481 0.601685 1.65027 0.939694 1.10815 1.44597C0.541261 1.97539 0.137297 2.73707 0.0353728 3.46875C0.01189 3.63714 0 5.00223 0 7.52429C0 10.719 0.00772847 11.3701 0.0484849 11.6024C0.267493 12.8509 1.18369 13.9175 2.37801 14.3143C2.94275 14.502 2.88994 14.4999 7.00435 14.5C11.162 14.5001 11.1128 14.5022 11.6703 14.2997C12.7866 13.8943 13.5376 13.0846 13.9005 11.8952L13.986 11.6149L13.997 7.65813C14.005 4.75952 13.9976 3.63519 13.9694 3.45404C13.7726 2.19073 12.8465 1.09375 11.6328 0.686492C11.0736 0.498842 11.304 0.508404 7.16705 0.500919C5.06895 0.497094 3.24829 0.505568 3.12113 0.519714ZM11.0623 1.74062C11.4759 1.8396 11.8181 2.03365 12.1363 2.34943C12.4371 2.64811 12.6105 2.92215 12.7414 3.30566L12.8313 3.56945V7.46029C12.8313 11.1671 12.8284 11.3621 12.7691 11.582C12.5475 12.4045 11.9061 13.0379 11.0576 13.2721C10.8655 13.3252 10.5582 13.3295 7.01842 13.3295C2.70488 13.3295 2.99807 13.3459 2.44406 13.0745C2.21643 12.963 2.10688 12.8805 1.86502 12.6386C1.53698 12.3106 1.38383 12.0598 1.24984 11.6314L1.17249 11.3841V7.50975C1.17249 3.8664 1.17606 3.6226 1.2325 3.42107C1.4664 2.58546 2.12468 1.93892 2.94685 1.73729C3.17034 1.68248 3.45362 1.6782 6.98539 1.67615C10.6878 1.67401 10.7906 1.67563 11.0623 1.74062ZM6.70433 4.08878C6.55914 4.18743 6.47554 4.30511 6.43901 4.46226C6.4225 4.53342 6.40863 5.11467 6.4082 5.75393L6.4074 6.91623H5.18405C4.04651 6.91623 3.95211 6.92062 3.83817 6.97898C3.69027 7.05469 3.58366 7.16426 3.53619 7.28933C3.44081 7.54058 3.54993 7.85399 3.77951 7.98833L3.91961 8.0703H5.16351H6.4074L6.4076 9.24909C6.40777 10.4724 6.42009 10.6058 6.54886 10.7797C6.63487 10.8958 6.85434 11.0049 7.00191 11.0049C7.17273 11.0049 7.39061 10.8831 7.49125 10.7314L7.57989 10.5977L7.58964 9.334L7.59935 8.0703L8.8447 8.06977C10.0722 8.06921 10.0919 8.06816 10.2221 7.99542C10.4662 7.85911 10.5734 7.49973 10.445 7.24831C10.4133 7.18612 10.3302 7.08967 10.2604 7.03398L10.1335 6.93272L8.86494 6.92336L7.59641 6.91399L7.59621 5.73632C7.59611 5.02795 7.58244 4.50978 7.56193 4.43602C7.5213 4.28998 7.39322 4.12966 7.26385 4.06286C7.11747 3.98728 6.83439 4.00041 6.70433 4.08878Z" fill="inherit"/>
</svg>
