<svg xmlns="http://www.w3.org/2000/svg" width="10" height="9" viewBox="0 0 10 9" fill="none">
  <path d="M1.11999 4.53931L1.11999 4.53948C1.12198 4.73823 1.20277 4.92807 1.34464 5.06728C1.4865 5.20649 1.67783 5.28371 1.87659 5.28195L1.87669 5.28195L4.41341 5.2577L4.38967 7.79252C4.3857 7.89216 4.40163 7.99159 4.43656 8.08502L4.57706 8.03249L4.43656 8.08502C4.4718 8.17928 4.52565 8.2655 4.59491 8.33852C4.66417 8.41154 4.74741 8.46986 4.83968 8.51003C4.93194 8.5502 5.03135 8.57141 5.132 8.57235C5.23263 8.5733 5.33242 8.55399 5.42543 8.51556C5.51845 8.47713 5.60278 8.42037 5.6734 8.34868C5.74401 8.27699 5.79949 8.19183 5.83651 8.09823C5.8732 8.00547 5.89099 7.90633 5.8889 7.80664L5.91271 5.24455L8.47772 5.22023L8.47772 5.22032L8.48281 5.22009C8.67712 5.21165 8.86055 5.12805 8.9944 4.98693C9.12825 4.84581 9.20204 4.65822 9.20021 4.46373C9.19837 4.26924 9.12105 4.08307 8.98456 3.94451C8.84808 3.80594 8.66311 3.72581 8.46867 3.72104L8.46867 3.72095L8.46358 3.721L5.92635 3.74476L5.95058 1.21044C5.95455 1.11079 5.93861 1.01134 5.90368 0.917922C5.86844 0.823657 5.81458 0.737444 5.74533 0.664426C5.67607 0.591405 5.59283 0.533081 5.50056 0.492909C5.4083 0.452739 5.30888 0.431536 5.20824 0.430586C5.10761 0.429637 5.00781 0.448954 4.9148 0.487378C4.82178 0.525807 4.73746 0.582569 4.66684 0.654262C4.59622 0.725961 4.54075 0.811137 4.50374 0.904718C4.46706 0.997468 4.44925 1.09659 4.45134 1.19629L4.42704 3.75888L1.86255 3.78271L1.86244 3.78271C1.66369 3.7847 1.47386 3.8655 1.33464 4.00736C1.19543 4.14923 1.11823 4.34056 1.11999 4.53931Z" fill="white" stroke="white" stroke-width="0.3"/>
</svg>
