<svg xmlns="http://www.w3.org/2000/svg" width="13" height="14" viewBox="0 0 13 14" fill="none">
  <path d="M1.53552 13.9452C1.11225 13.9452 0.767881 13.6109 0.767881 13.1999V9.75657C0.767881 9.3456 1.11225 9.01124 1.53552 9.01124H5.08193C5.50521 9.01124 5.84957 9.3456 5.84957 9.75657C5.84957 10.1675 5.50521 10.5019 5.08193 10.5019H3.17091C4.08031 11.3187 5.25732 11.7667 6.50159 11.7667C7.15687 11.7667 7.79598 11.6415 8.40116 11.3947C10.2275 10.6496 11.4074 8.92533 11.4071 7.00191C11.4071 6.59093 11.7515 6.25658 12.1748 6.25658C12.5981 6.25658 12.9424 6.59093 12.9424 7.0019C12.9401 9.46372 11.4427 11.7031 9.12772 12.7071C8.29556 13.068 7.41206 13.251 6.50176 13.251C4.95754 13.251 3.47171 12.7157 2.30316 11.741V13.1999C2.30316 13.6109 1.95879 13.9452 1.53552 13.9452ZM0.826235 7.74723C0.402961 7.74723 0.0585938 7.41287 0.0585938 7.0019C0.0609163 4.54008 1.55827 2.30068 3.87329 1.2967C4.7055 0.935784 5.58899 0.752792 6.49926 0.752792C8.04351 0.752792 9.52934 1.28817 10.6979 2.26283V0.803908C10.6979 0.392939 11.0422 0.0585938 11.4655 0.0585938C11.8888 0.0585938 12.2331 0.392951 12.2331 0.80392V4.24724C12.2331 4.65821 11.8888 4.99257 11.4655 4.99257H7.91907C7.4958 4.99257 7.15144 4.65821 7.15144 4.24724C7.15144 3.83627 7.4958 3.50191 7.91907 3.50191H9.8301C8.9207 2.68515 7.7437 2.23708 6.49942 2.23708C5.84415 2.23708 5.20504 2.36227 4.59985 2.60915C2.7735 3.35423 1.59358 5.07848 1.59388 7.00189C1.59388 7.41287 1.24951 7.74723 0.826235 7.74723Z" fill="currentColor"/>
  <path d="M1.53528 13.8866C1.92701 13.8866 2.24457 13.5783 2.24457 13.198V11.614C4.12011 13.2428 6.80616 13.6498 9.10369 12.6534C11.4012 11.657 12.8815 9.44313 12.8838 6.99997C12.8838 6.61963 12.5663 6.3113 12.1745 6.3113C11.7828 6.3113 11.4653 6.61963 11.4653 6.99997C11.4655 8.9411 10.2667 10.693 8.42353 11.445C6.58037 12.1969 4.45253 11.8021 3.02478 10.4433H5.08169C5.47342 10.4433 5.79098 10.135 5.79098 9.75463C5.79098 9.37429 5.47343 9.06596 5.08169 9.06596H1.53528C1.14355 9.06596 0.825994 9.37429 0.825994 9.75463V13.198C0.825994 13.5783 1.14355 13.8866 1.53528 13.8866ZM0.825994 7.68863C1.21772 7.68863 1.53528 7.38031 1.53528 6.99997C1.53499 5.05884 2.73385 3.30691 4.57701 2.55498C6.42017 1.80306 8.54801 2.19785 9.97576 3.55663H7.91883C7.5271 3.55663 7.20956 3.86496 7.20956 4.2453C7.20956 4.62564 7.5271 4.93397 7.91883 4.93397H11.4653C11.857 4.93397 12.1745 4.62564 12.1745 4.2453V0.801983C12.1745 0.421643 11.857 0.113314 11.4653 0.113314C11.0735 0.113314 10.756 0.421643 10.756 0.801972V2.3859C8.88043 0.757133 6.19438 0.350097 3.89685 1.34649C1.59931 2.34289 0.119006 4.55681 0.116707 6.99997C0.116707 7.38031 0.434267 7.68863 0.825994 7.68863ZM1.53528 13.9999C1.07983 13.9999 0.709287 13.6402 0.709287 13.198V9.75463C0.709287 9.31242 1.07983 8.95265 1.53528 8.95265H5.08169C5.53714 8.95265 5.90769 9.31242 5.90769 9.75463C5.90769 10.1968 5.53714 10.5566 5.08169 10.5566H3.32312C4.20517 11.3012 5.32277 11.7081 6.50135 11.7081C7.14883 11.7081 7.78033 11.5844 8.37832 11.3405C10.1829 10.6043 11.3488 8.90052 11.3485 6.99998C11.3485 6.55776 11.7191 6.19798 12.1745 6.19798C12.63 6.19798 13.0005 6.55776 13.0005 6.99997C12.9982 9.48413 11.4873 11.7438 9.15128 12.7569C8.31156 13.1211 7.42005 13.3057 6.50152 13.3057C4.98543 13.3057 3.52517 12.7943 2.36128 11.8609V13.198C2.36128 13.6402 1.99073 13.9999 1.53528 13.9999ZM0.825994 7.80195C0.370545 7.80195 0 7.44218 0 6.99997C0.00233425 4.5158 1.51326 2.2561 3.84926 1.24303C4.68897 0.878855 5.58049 0.694198 6.49902 0.694198C8.01511 0.694198 9.47538 1.20558 10.6393 2.13908V0.801972C10.6393 0.359762 11.0098 0 11.4653 0C11.9207 0 12.2912 0.359773 12.2912 0.801983V4.2453C12.2912 4.68751 11.9207 5.04729 11.4653 5.04729H7.91883C7.46338 5.04729 7.09285 4.68751 7.09285 4.2453C7.09285 3.80309 7.46338 3.44332 7.91883 3.44332H9.67742C8.79537 2.69873 7.67776 2.2918 6.49918 2.2918C5.8517 2.2918 5.2202 2.41549 4.62222 2.65944C2.81759 3.39566 1.65171 5.09941 1.65199 6.99996C1.65199 7.44218 1.28144 7.80195 0.825994 7.80195Z" fill="currentColor"/>
</svg>
