<svg width="16" height="16" viewBox="0 0 16 16" fill="none" xmlns="http://www.w3.org/2000/svg">
<path d="M2.5 8.00039C2.5 7.86778 2.55268 7.74061 2.64645 7.64684C2.74021 7.55307 2.86739 7.50039 3 7.50039H7.5C7.63261 7.50039 7.75979 7.55307 7.85355 7.64684C7.94732 7.74061 8 7.86778 8 8.00039C8 8.133 7.94732 8.26018 7.85355 8.35395C7.75979 8.44772 7.63261 8.50039 7.5 8.50039H3C2.86739 8.50039 2.74021 8.44772 2.64645 8.35395C2.55268 8.26018 2.5 8.133 2.5 8.00039ZM3 4.50039H6.5C6.63261 4.50039 6.75979 4.44771 6.85355 4.35395C6.94732 4.26018 7 4.133 7 4.00039C7 3.86779 6.94732 3.74061 6.85355 3.64684C6.75979 3.55307 6.63261 3.50039 6.5 3.50039H3C2.86739 3.50039 2.74021 3.55307 2.64645 3.64684C2.55268 3.74061 2.5 3.86779 2.5 4.00039C2.5 4.133 2.55268 4.26018 2.64645 4.35395C2.74021 4.44771 2.86739 4.50039 3 4.50039ZM11.5 11.5004H3C2.86739 11.5004 2.74021 11.5531 2.64645 11.6468C2.55268 11.7406 2.5 11.8678 2.5 12.0004C2.5 12.133 2.55268 12.2602 2.64645 12.3539C2.74021 12.4477 2.86739 12.5004 3 12.5004H11.5C11.6326 12.5004 11.7598 12.4477 11.8536 12.3539C11.9473 12.2602 12 12.133 12 12.0004C12 11.8678 11.9473 11.7406 11.8536 11.6468C11.7598 11.5531 11.6326 11.5004 11.5 11.5004ZM14.3538 5.14664L11.8538 2.64664C11.8073 2.60016 11.7522 2.56328 11.6915 2.53811C11.6308 2.51295 11.5657 2.5 11.5 2.5C11.4343 2.5 11.3692 2.51295 11.3085 2.53811C11.2478 2.56328 11.1927 2.60016 11.1462 2.64664L8.64625 5.14664C8.55243 5.24046 8.49972 5.36771 8.49972 5.50039C8.49972 5.63308 8.55243 5.76032 8.64625 5.85414C8.74007 5.94796 8.86732 6.00067 9 6.00067C9.13268 6.00067 9.25993 5.94796 9.35375 5.85414L11 4.20727V9.00039C11 9.133 11.0527 9.26018 11.1464 9.35395C11.2402 9.44772 11.3674 9.50039 11.5 9.50039C11.6326 9.50039 11.7598 9.44772 11.8536 9.35395C11.9473 9.26018 12 9.133 12 9.00039V4.20727L13.6462 5.85414C13.6927 5.9006 13.7479 5.93745 13.8086 5.96259C13.8692 5.98773 13.9343 6.00067 14 6.00067C14.0657 6.00067 14.1308 5.98773 14.1914 5.96259C14.2521 5.93745 14.3073 5.9006 14.3538 5.85414C14.4002 5.80769 14.4371 5.75254 14.4622 5.69184C14.4873 5.63115 14.5003 5.56609 14.5003 5.50039C14.5003 5.4347 14.4873 5.36964 14.4622 5.30895C14.4371 5.24825 14.4002 5.1931 14.3538 5.14664Z" fill="#60646C"/>
</svg>
