<svg data-name="Group 1754" xmlns="http://www.w3.org/2000/svg" width="151.285" height="23.002" viewBox="0 0 151.285 23.002">
    <g data-name="Group 1141">
        <path data-name="Path 1345" d="M171.376 153.1a5.048 5.048 0 0 1-3.53 1.124h-3.755v-2.009h4.019a2.2 2.2 0 0 0 1.586-.582 1.87 1.87 0 0 0 .608-1.4v-2.75a1.937 1.937 0 0 0-.41-1.283 1.517 1.517 0 0 0-1.23-.489h-.794a4.153 4.153 0 0 1-3.093-1.15 4.564 4.564 0 0 1-1.137-3.345v-1a4.344 4.344 0 0 1 1.229-3.371 5.052 5.052 0 0 1 3.53-1.124h3.78v2.009h-4.045a2.2 2.2 0 0 0-1.586.582 1.871 1.871 0 0 0-.608 1.4v2.01a1.868 1.868 0 0 0 .529 1.362 1.835 1.835 0 0 0 1.375.542h.794a3.866 3.866 0 0 1 2.921 1.084 4.566 4.566 0 0 1 1.044 3.279v1.745a4.344 4.344 0 0 1-1.227 3.366z" transform="translate(-163.643 -135.712)" style="fill:#f93"/>
        <path data-name="Path 1346" d="M188.483 156.328h-.9a4.442 4.442 0 0 1-3.186-1 4.313 4.313 0 0 1-1.044-3.226v-8.99h2.247v9.518a1.6 1.6 0 0 0 1.719 1.719h1.428a1.677 1.677 0 0 0 1.255-.422 1.572 1.572 0 0 0 .463-.952v-9.862h2.247v13.22H190.6v-.608a3.608 3.608 0 0 1-2.117.603z" transform="translate(-169.262 -137.821)" style="fill:#f93"/>
        <path data-name="Path 1347" d="M205.219 143.108v.635a3.355 3.355 0 0 1 2.115-.635h.952a4.948 4.948 0 0 1 3.411.992 4.211 4.211 0 0 1 1.084 3.239v4.761a4.187 4.187 0 0 1-1.1 3.226 4.905 4.905 0 0 1-3.4 1h-2.935v4.495H203.1v-17.713zm.555 2.446a1.449 1.449 0 0 0-.423.992v7.8h3.2a2.157 2.157 0 0 0 1.481-.449 1.616 1.616 0 0 0 .5-1.27v-5.817a1.616 1.616 0 0 0-.5-1.269 2.157 2.157 0 0 0-1.481-.45h-1.481a1.67 1.67 0 0 0-1.296.463z" transform="translate(-174.893 -137.821)" style="fill:#f93"/>
        <path data-name="Path 1348" d="M224.418 155.337a4.2 4.2 0 0 1-1.085-3.239v-4.759a3.587 3.587 0 0 1 4.23-4.231h1.243a3.685 3.685 0 0 1 2.842 1.044 4.349 4.349 0 0 1 .965 3.054v3.437h-7.033v1.982a1.616 1.616 0 0 0 .5 1.27 2.156 2.156 0 0 0 1.481.449h4.2v1.983h-3.94a4.938 4.938 0 0 1-3.403-.99zm6-8.659a1.538 1.538 0 0 0-1.586-1.586H227.3a1.707 1.707 0 0 0-1.335.437 1.886 1.886 0 0 0-.383 1.282v1.851h4.838z" transform="translate(-180.66 -137.821)" style="fill:#f93"/>
        <path data-name="Path 1349" d="M245.456 154.345v-9.254h-1.931v-1.983h4.046v.714a3.23 3.23 0 0 1 2.115-.714h2.723v2.115h-2.988a1.512 1.512 0 0 0-1.269.542 1.934 1.934 0 0 0-.449 1.1v7.482h2.882v1.983h-7.06v-1.983z" transform="translate(-186.417 -137.821)" style="fill:#f93"/>
    </g>
    <path data-name="Path 1350" d="M266.479 154.22v-16.5h-4.2v-2.009h10.709v2.009h-4.2v16.5z" transform="translate(-191.762 -135.712)" style="fill:#222"/>
    <path data-name="Path 1352" d="M305.538 148.562v5.658h-2.248v-18.508h2.248v9.994l4.15-4.706h2.83l-4.6 5.209 4.971 8.011h-2.777l-3.886-6.451z" transform="translate(-203.455 -135.712)" style="fill:#222"/>
    <path data-name="Path 1353" d="M324.271 155.337a4.2 4.2 0 0 1-1.084-3.239v-4.759a3.587 3.587 0 0 1 4.23-4.231h1.243a3.683 3.683 0 0 1 2.842 1.044 4.346 4.346 0 0 1 .966 3.054v3.437h-7.033v1.982a1.616 1.616 0 0 0 .5 1.27 2.158 2.158 0 0 0 1.481.449h4.2v1.983h-3.939a4.941 4.941 0 0 1-3.406-.99zm6-8.659a1.538 1.538 0 0 0-1.586-1.586h-1.534a1.709 1.709 0 0 0-1.335.437 1.89 1.89 0 0 0-.383 1.282v1.851h4.839z" transform="translate(-209.128 -137.821)" style="fill:#222"/>
    <path data-name="Path 1354" d="M345.013 143.108v.635a3.357 3.357 0 0 1 2.115-.635h1.217a4.445 4.445 0 0 1 3.186 1.005 4.316 4.316 0 0 1 1.044 3.226v8.989h-2.248v-9.518a1.6 1.6 0 0 0-1.718-1.719h-1.746a1.67 1.67 0 0 0-1.295.463 1.449 1.449 0 0 0-.423.992v9.782H342.9v-13.22z" transform="translate(-214.747 -137.821)" style="fill:#222"/>
    <path data-name="Path 1355" d="M371.035 155.509a4.606 4.606 0 0 1-2.948.819h-3.94v-1.983h4.2a1.673 1.673 0 0 0 1.084-.3 1.079 1.079 0 0 0 .37-.886v-1.4q0-1.19-1.137-1.19h-.978a4.073 4.073 0 0 1-2.763-.806 3.239 3.239 0 0 1-.911-2.551v-.766a3.03 3.03 0 0 1 1-2.552 4.766 4.766 0 0 1 2.961-.781h3.543v1.983h-3.808a1.691 1.691 0 0 0-1.057.3 1.047 1.047 0 0 0-.4.885v.952a1.091 1.091 0 0 0 .357.9 1.4 1.4 0 0 0 .913.291h.9a3.829 3.829 0 0 1 2.7.859 3.316 3.316 0 0 1 .925 2.551v1.19a3 3 0 0 1-1.011 2.485z" transform="translate(-220.768 -137.821)" style="fill:#222"/>
    <g data-name="Group 1805">
        <path data-name="Exclusion 1" d="M7.06 14.021h-.116a2.8 2.8 0 0 1-1.392-.507c-.117-.078-.233-.163-.346-.244l-.01-.007a6.228 6.228 0 0 0-.745-.487 2.786 2.786 0 0 0-1.289-.321H3.1a2.222 2.222 0 0 0-.507.051.743.743 0 0 0-.344.654 1.219 1.219 0 0 0 .112.448 1.162 1.162 0 0 1 .1.269c-.013 0-.046-.041-.11-.119a3.459 3.459 0 0 0-1.812-1.315.667.667 0 0 1-.423-1.031c2.233-3.285 2.512-4.459 3.551-8.826l.09-.378.209-.873a.672.672 0 0 1 .393-.462L5.618.348A.667.667 0 0 1 5.875.3a.683.683 0 0 1 .1.008A5.43 5.43 0 0 1 7.958 0h.872a5.429 5.429 0 0 1 1.979.305.671.671 0 0 0-.386.2L6.631.8 6.364.509a.672.672 0 0 0-.385-.2 2.235 2.235 0 0 0-.688.417 3.216 3.216 0 0 0-.748 2.429V7.9a3.218 3.218 0 0 0 .748 2.43 3.94 3.94 0 0 0 2.667.721h.872a3.94 3.94 0 0 0 2.67-.721 3.22 3.22 0 0 0 .748-2.43V3.151A3.218 3.218 0 0 0 11.5.722a2.241 2.241 0 0 0-.688-.417.692.692 0 0 1 .1-.008.663.663 0 0 1 .256.051l1.259.524a.672.672 0 0 1 .393.464c.232.969.429 1.834.573 2.465.8 3.5 1.1 4.814 3.111 7.777a.667.667 0 0 1-.423 1.031 3.061 3.061 0 0 0-1.711 1.208.355.355 0 0 1-.064.075.844.844 0 0 1 .074-.186l.045-.1a1.23 1.23 0 0 0 .111-.448.722.722 0 0 0-.249-.578 3.851 3.851 0 0 0-.843-.106h-.09a1.329 1.329 0 0 0-1.095.444 1.9 1.9 0 0 0-.113.172v.008A1.648 1.648 0 0 1 12 13.3a.5.5 0 0 1-.411.2 1.7 1.7 0 0 1-.7-.237c-.092-.046-.167-.084-.24-.115a2.189 2.189 0 0 0-.848-.2 1.4 1.4 0 0 0-.244.021 2.915 2.915 0 0 0-1.051.507c-.073.048-.146.1-.219.142a2.278 2.278 0 0 1-1.227.403z" transform="translate(80.323 6.357)" style="stroke:transparent;fill:#f93"/>
        <g data-name="Group 4056">
            <path data-name="Path 14227" d="m698.042 464.3.062-1.034.933-.27.381 1.206a1.8 1.8 0 0 0-1.376.098z" transform="translate(-608.697 -444.792)" style="fill:#db902e"/>
            <path data-name="Path 14229" d="M658.756 440.714v.416c-.747-.133-1.358.113-1.338.671h-.006v-.16a9.418 9.418 0 0 1 .8-2.981c.245-.825.357-3.335.556-2.506a5.481 5.481 0 0 1-.014 2.128 8.815 8.815 0 0 0 0 1.213z" transform="translate(-574.847 -422.288)" style="fill:#db902e"/>
            <path data-name="Path 14231" d="M722.528 440.714v.416c.654.034 1.358.113 1.339.671h.006v-.16a9.421 9.421 0 0 0-.8-2.981c-.245-.825-.357-3.335-.556-2.506a5.476 5.476 0 0 0 .014 2.128 8.824 8.824 0 0 1 0 1.213z" transform="translate(-629.001 -422.288)" style="fill:#db902e"/>
        </g>
        <g data-name="Group 1803">
            <path data-name="Path 14233" d="M670.144 387.713a2.907 2.907 0 0 1 1.944.44 2.433 2.433 0 0 1 .4 1.641v4.749a2.432 2.432 0 0 1-.4 1.641 2.905 2.905 0 0 1-1.944.44h-.871a2.9 2.9 0 0 1-1.945-.441 2.434 2.434 0 0 1-.4-1.64v-4.749a2.434 2.434 0 0 1 .4-1.641 2.908 2.908 0 0 1 1.944-.44h.871m0-2.14h-.871a4.9 4.9 0 0 0-3.39 1 4.177 4.177 0 0 0-1.095 3.219v4.749a4.177 4.177 0 0 0 1.095 3.219 4.895 4.895 0 0 0 3.39 1h.871a4.894 4.894 0 0 0 3.39-1 4.177 4.177 0 0 0 1.095-3.219v-4.749a4.177 4.177 0 0 0-1.095-3.219 4.895 4.895 0 0 0-3.39-1z" transform="translate(-580.992 -380.286)" style="fill:#222"/>
        </g>
        <g data-name="Group 1804" transform="translate(87.789 11.102)">
            <circle data-name="Ellipse 669" cx=".927" cy=".927" style="fill:#222" r=".927"/>
            <path data-name="Path 14234" d="M691.566 429.311h-.866a.2.2 0 0 1-.195-.215l.178-1.834a.2.2 0 0 1 .195-.177h.51a.2.2 0 0 1 .195.177l.178 1.834a.2.2 0 0 1-.195.215z" transform="translate(-690.205 -425.973)" style="fill:#222"/>
        </g>
    </g>
</svg>
