<svg data-name="Group 7893" xmlns="http://www.w3.org/2000/svg" width="147.902" height="22.488" viewBox="0 0 147.902 22.488">
    <g data-name="Group 1141">
        <path data-name="Path 1345" d="M171.2 152.707a4.935 4.935 0 0 1-3.451 1.1h-3.671v-1.964h3.929a2.15 2.15 0 0 0 1.551-.569 1.828 1.828 0 0 0 .595-1.37v-2.689a1.894 1.894 0 0 0-.4-1.254 1.483 1.483 0 0 0-1.2-.478h-.776a4.06 4.06 0 0 1-3.024-1.124 4.462 4.462 0 0 1-1.111-3.27v-.982a4.247 4.247 0 0 1 1.2-3.3 4.939 4.939 0 0 1 3.451-1.1h3.7v1.964h-3.954a2.151 2.151 0 0 0-1.551.569 1.829 1.829 0 0 0-.595 1.37v1.965a1.826 1.826 0 0 0 .517 1.331 1.794 1.794 0 0 0 1.344.53h.776a3.779 3.779 0 0 1 2.856 1.06 4.464 4.464 0 0 1 1.021 3.205v1.706a4.246 4.246 0 0 1-1.207 3.3z" transform="translate(-163.643 -135.712)" style="fill:#f93"/>
        <path data-name="Path 1346" d="M188.369 156.032h-.879a4.342 4.342 0 0 1-3.114-.982 4.217 4.217 0 0 1-1.021-3.154v-8.789h2.2v9.305a1.562 1.562 0 0 0 1.68 1.68h1.4a1.639 1.639 0 0 0 1.227-.413 1.537 1.537 0 0 0 .453-.931v-9.642h2.2v12.924h-2.067v-.594a3.527 3.527 0 0 1-2.079.596z" transform="translate(-169.578 -137.939)" style="fill:#f93"/>
        <path data-name="Path 1347" d="M205.171 143.108v.621a3.28 3.28 0 0 1 2.068-.621h.93a4.837 4.837 0 0 1 3.335.969 4.117 4.117 0 0 1 1.06 3.167v4.656a4.093 4.093 0 0 1-1.073 3.154 4.8 4.8 0 0 1-3.321.982h-2.87v4.394h-2.2v-17.322zm.543 2.391a1.416 1.416 0 0 0-.414.97v7.624h3.128a2.109 2.109 0 0 0 1.447-.439 1.58 1.58 0 0 0 .491-1.241v-5.686a1.58 1.58 0 0 0-.491-1.241 2.109 2.109 0 0 0-1.447-.44h-1.448a1.633 1.633 0 0 0-1.266.454z" transform="translate(-175.524 -137.939)" style="fill:#f93"/>
        <path data-name="Path 1348" d="M224.393 155.063a4.111 4.111 0 0 1-1.06-3.166v-4.653a3.507 3.507 0 0 1 4.136-4.136h1.215a3.6 3.6 0 0 1 2.779 1.021 4.251 4.251 0 0 1 .944 2.986v3.36h-6.877v1.938a1.58 1.58 0 0 0 .491 1.241 2.108 2.108 0 0 0 1.447.439h4.11v1.939h-3.852a4.828 4.828 0 0 1-3.333-.969zm5.867-8.465a1.5 1.5 0 0 0-1.551-1.551h-1.5a1.669 1.669 0 0 0-1.3.427 1.844 1.844 0 0 0-.375 1.253v1.81h4.73z" transform="translate(-181.614 -137.939)" style="fill:#f93"/>
        <path data-name="Path 1349" d="M245.413 154.094v-9.047h-1.888v-1.939h3.955v.7a3.158 3.158 0 0 1 2.068-.7h2.662v2.068h-2.921a1.478 1.478 0 0 0-1.241.53 1.891 1.891 0 0 0-.439 1.073v7.315h2.817v1.939h-6.9v-1.939z" transform="translate(-187.694 -137.939)" style="fill:#f93"/>
    </g>
    <path data-name="Path 1350" d="M266.385 153.806v-16.13h-4.11v-1.964h10.469v1.964h-4.11v16.13z" transform="translate(-193.339 -135.712)" style="fill:#fff"/>
    <path data-name="Path 1352" d="M305.487 148.274v5.531h-2.2v-18.093h2.2v9.77l4.057-4.6h2.766l-4.5 5.092 4.86 7.832h-2.715l-3.8-6.307z" transform="translate(-205.688 -135.712)" style="fill:#fff"/>
    <path data-name="Path 1353" d="M324.247 155.063a4.11 4.11 0 0 1-1.06-3.166v-4.653a3.506 3.506 0 0 1 4.135-4.136h1.215a3.6 3.6 0 0 1 2.778 1.021 4.248 4.248 0 0 1 .944 2.986v3.36h-6.876v1.938a1.58 1.58 0 0 0 .491 1.241 2.109 2.109 0 0 0 1.448.439h4.11v1.939h-3.851a4.831 4.831 0 0 1-3.334-.969zm5.867-8.465a1.5 1.5 0 0 0-1.551-1.551h-1.5a1.671 1.671 0 0 0-1.3.427 1.848 1.848 0 0 0-.375 1.253v1.81h4.73z" transform="translate(-211.679 -137.939)" style="fill:#fff"/>
    <path data-name="Path 1354" d="M344.965 143.108v.621a3.282 3.282 0 0 1 2.068-.621h1.19a4.345 4.345 0 0 1 3.115.983 4.219 4.219 0 0 1 1.02 3.154v8.788h-2.2v-9.305a1.56 1.56 0 0 0-1.68-1.68h-1.707a1.633 1.633 0 0 0-1.266.452 1.416 1.416 0 0 0-.414.97v9.563h-2.2v-12.925z" transform="translate(-217.613 -137.939)" style="fill:#fff"/>
    <path data-name="Path 1355" d="M370.878 155.231a4.5 4.5 0 0 1-2.882.8h-3.852v-1.939h4.11a1.635 1.635 0 0 0 1.06-.3 1.055 1.055 0 0 0 .361-.866v-1.37q0-1.164-1.111-1.163h-.956a3.982 3.982 0 0 1-2.7-.788 3.166 3.166 0 0 1-.891-2.494v-.749a2.962 2.962 0 0 1 .982-2.494 4.66 4.66 0 0 1 2.895-.763h3.464v1.939h-3.722a1.653 1.653 0 0 0-1.034.3 1.023 1.023 0 0 0-.388.865v.931a1.066 1.066 0 0 0 .349.879 1.364 1.364 0 0 0 .893.284h.878a3.743 3.743 0 0 1 2.637.84 3.242 3.242 0 0 1 .9 2.494v1.163a2.935 2.935 0 0 1-.993 2.431z" transform="translate(-223.971 -137.939)" style="fill:#fff"/>
    <g data-name="Group 1805">
        <path data-name="Exclusion 1" d="M6.9 13.707h-.113a2.737 2.737 0 0 1-1.361-.5 12.004 12.004 0 0 1-.338-.239l-.01-.007a6.088 6.088 0 0 0-.729-.477 2.723 2.723 0 0 0-1.26-.314h-.057a2.17 2.17 0 0 0-.5.05.726.726 0 0 0-.336.639 1.193 1.193 0 0 0 .11.437 1.141 1.141 0 0 1 .1.263c-.012 0-.045-.04-.107-.116a3.383 3.383 0 0 0-1.772-1.279.653.653 0 0 1-.414-1.008C2.3 7.945 2.569 6.8 3.585 2.529l.088-.369q.1-.408.2-.853a.657.657 0 0 1 .389-.454L5.493.34a.653.653 0 0 1 .251-.05.661.661 0 0 1 .1.008A5.31 5.31 0 0 1 7.78 0h.852a5.311 5.311 0 0 1 1.935.3.656.656 0 0 0-.377.2L6.483.779 6.222.5a.657.657 0 0 0-.377-.2 2.183 2.183 0 0 0-.672.407 3.144 3.144 0 0 0-.731 2.373v4.644a3.145 3.145 0 0 0 .731 2.376 3.851 3.851 0 0 0 2.607.7h.852a3.851 3.851 0 0 0 2.607-.7 3.148 3.148 0 0 0 .731-2.375V3.08a3.146 3.146 0 0 0-.73-2.374A2.192 2.192 0 0 0 10.567.3a.67.67 0 0 1 .1-.008.648.648 0 0 1 .25.05l1.233.511a.657.657 0 0 1 .384.453c.227.947.42 1.793.56 2.41.78 3.425 1.072 4.706 3.041 7.6a.652.652 0 0 1-.413 1.008 2.992 2.992 0 0 0-1.672 1.181c-.04.051-.057.073-.062.073a.82.82 0 0 1 .072-.182l.044-.1a1.207 1.207 0 0 0 .109-.437.706.706 0 0 0-.244-.565 3.766 3.766 0 0 0-.824-.1h-.088a1.3 1.3 0 0 0-1.07.434 1.888 1.888 0 0 0-.111.169v.008a1.638 1.638 0 0 1-.135.2.493.493 0 0 1-.4.2 1.658 1.658 0 0 1-.682-.232 3.88 3.88 0 0 0-.234-.112 2.14 2.14 0 0 0-.829-.194 1.373 1.373 0 0 0-.238.02 2.852 2.852 0 0 0-1.027.5l-.214.139a2.228 2.228 0 0 1-1.217.381z" transform="translate(78.526 6.215)" style="stroke:transparent;fill:#f93"/>
        <g data-name="Group 4056">
            <path data-name="Path 14227" d="m698.042 464.275.06-1.011.912-.264.373 1.179a1.758 1.758 0 0 0-1.345.096z" transform="translate(-610.695 -445.199)" style="fill:#db902e"/>
            <path data-name="Path 14229" d="M658.726 440.608v.406c-.731-.13-1.327.11-1.308.656h-.006v-.156a9.21 9.21 0 0 1 .782-2.915c.24-.806.349-3.26.544-2.45a5.359 5.359 0 0 1-.014 2.081 8.613 8.613 0 0 0 0 1.186z" transform="translate(-576.694 -422.594)" style="fill:#db902e"/>
            <path data-name="Path 14231" d="M722.525 440.608v.406c.639.033 1.327.11 1.309.656h.006v-.156a9.212 9.212 0 0 0-.782-2.915c-.24-.806-.349-3.26-.544-2.45a5.352 5.352 0 0 0 .014 2.081 8.623 8.623 0 0 1 0 1.186z" transform="translate(-631.091 -422.594)" style="fill:#db902e"/>
        </g>
        <g data-name="Group 1803">
            <path data-name="Path 14233" d="M670.024 387.665a2.843 2.843 0 0 1 1.9.431 2.38 2.38 0 0 1 .392 1.6v4.643a2.378 2.378 0 0 1-.392 1.6 2.84 2.84 0 0 1-1.9.43h-.851a2.839 2.839 0 0 1-1.9-.431 2.379 2.379 0 0 1-.391-1.6V389.7a2.379 2.379 0 0 1 .392-1.6 2.843 2.843 0 0 1 1.9-.431h.851m0-2.092h-.851a4.786 4.786 0 0 0-3.314.98 4.083 4.083 0 0 0-1.071 3.147v4.643a4.083 4.083 0 0 0 1.071 3.147 4.785 4.785 0 0 0 3.314.98h.851a4.784 4.784 0 0 0 3.314-.98 4.083 4.083 0 0 0 1.07-3.147V389.7a4.084 4.084 0 0 0-1.07-3.147 4.785 4.785 0 0 0-3.314-.98z" transform="translate(-582.866 -380.404)" style="fill:#fff"/>
        </g>
        <g data-name="Group 1804" transform="translate(85.825 10.854)">
            <circle data-name="Ellipse 669" cx=".906" cy=".906" style="fill:#fff" r=".906"/>
            <path data-name="Path 14234" d="M691.542 429.261h-.847a.191.191 0 0 1-.19-.21l.174-1.793a.191.191 0 0 1 .191-.173h.5a.191.191 0 0 1 .191.173l.174 1.793a.191.191 0 0 1-.193.21z" transform="translate(-690.212 -425.998)" style="fill:#fff"/>
        </g>
    </g>
</svg>
