<svg width="20" height="20" viewBox="0 0 20 20" xmlns="http://www.w3.org/2000/svg" fill="currentColor">
<path fill-rule="evenodd" clip-rule="evenodd" d="M8.62712 4C8.03739 4 7.55932 4.4683 7.55932 5.04598V7.73563C7.55932 8.31331 8.03739 8.78161 8.62712 8.78161H9.38983V9.52874H3.8983C3.30858 9.52874 2.83051 9.99704 2.83051 10.5747V11.7701H4.05085V10.7241H9.38983V11.7701H10.6102V10.7241H16.0254V11.7701H17.2458V10.5747C17.2458 9.99704 16.7677 9.52874 16.178 9.52874H10.6102V8.78161H11.3729C11.9626 8.78161 12.4407 8.31331 12.4407 7.73563V5.04598C12.4407 4.4683 11.9626 4 11.3729 4H8.62712ZM8.77966 5.1954V7.58621H11.2203V5.1954H8.77966Z" />
<path fill-rule="evenodd" clip-rule="evenodd" d="M1 13.2644C1 12.6867 1.47807 12.2184 2.0678 12.2184H4.81356C5.40329 12.2184 5.88136 12.6867 5.88136 13.2644V15.954C5.88136 16.5317 5.40329 17 4.81356 17H2.0678C1.47807 17 1 16.5317 1 15.954V13.2644ZM2.22034 15.8046V13.4138H4.66102V15.8046H2.22034Z" />
<path fill-rule="evenodd" clip-rule="evenodd" d="M7.55932 13.2644C7.55932 12.6867 8.03739 12.2184 8.62712 12.2184H11.3729C11.9626 12.2184 12.4407 12.6867 12.4407 13.2644V15.954C12.4407 16.5317 11.9626 17 11.3729 17H8.62712C8.03739 17 7.55932 16.5317 7.55932 15.954V13.2644ZM8.77966 15.8046V13.4138H11.2203V15.8046H8.77966Z" />
<path fill-rule="evenodd" clip-rule="evenodd" d="M14.1186 13.2644C14.1186 12.6867 14.5967 12.2184 15.1864 12.2184H17.9322C18.5219 12.2184 19 12.6867 19 13.2644V15.954C19 16.5317 18.5219 17 17.9322 17H15.1864C14.5967 17 14.1186 16.5317 14.1186 15.954V13.2644ZM15.339 15.8046V13.4138H17.7797V15.8046H15.339Z" />
</svg>
