<svg xmlns="http://www.w3.org/2000/svg" width="16" height="16" viewBox="0 0 16 16">
    <g data-name="211642_checkmark_circled_icon">
        <path data-name="Path 91650" d="M40 32a8 8 0 1 0 8 8 8 8 0 0 0-8-8zm4.1 5.325L39.136 43.7c-.039.039-.1.125-.182.125a.263.263 0 0 1-.182-.1c-.046-.046-2.818-2.711-2.818-2.711l-.054-.054a.186.186 0 0 1 0-.229.467.467 0 0 0 .039-.043c.275-.289.832-.875.868-.911s.086-.107.171-.107.146.075.189.118 1.607 1.546 1.607 1.546l3.975-5.107a.2.2 0 0 1 .125-.05.2.2 0 0 1 .125.046l1.093.861a.2.2 0 0 1 .046.125.185.185 0 0 1-.038.116z" style="fill:#76a9fa" transform="translate(-32 -32)"/>
    </g>
</svg>
