<svg width="22" height="22" viewBox="0 0 22 22" fill="none" xmlns="http://www.w3.org/2000/svg">
<path d="M11 22C17.0751 22 22 17.0751 22 11C22 4.92487 17.0751 0 11 0C4.92487 0 0 4.92487 0 11C0 17.0751 4.92487 22 11 22Z" fill="#DA223C"/>
<path d="M7.25152 14.8881C7.40766 15.0411 7.61816 15.1259 7.83679 15.1239C8.05541 15.1218 8.26429 15.0331 8.41752 14.8771L11.0075 12.2371L13.5985 14.8771C13.6733 14.9587 13.7638 15.0244 13.8645 15.0703C13.9652 15.1162 14.0742 15.1414 14.1849 15.1443C14.2955 15.1472 14.4056 15.1279 14.5086 15.0873C14.6117 15.0468 14.7055 14.986 14.7845 14.9084C14.8635 14.8309 14.9261 14.7383 14.9686 14.636C15.011 14.5338 15.0325 14.4241 15.0316 14.3134C15.0308 14.2027 15.0077 14.0933 14.9637 13.9917C14.9197 13.8901 14.8557 13.7984 14.7755 13.7221L12.1635 11.0611L14.7755 8.39908C14.9201 8.24137 14.9977 8.03366 14.9921 7.81979C14.9864 7.60592 14.8979 7.40261 14.7452 7.25276C14.5925 7.10291 14.3875 7.01825 14.1736 7.01663C13.9597 7.01501 13.7535 7.09656 13.5985 7.24408L11.0075 9.88408L8.41752 7.24408C8.34271 7.16248 8.25225 7.09677 8.15151 7.05086C8.05078 7.00495 7.94183 6.97978 7.83117 6.97685C7.72051 6.97392 7.6104 6.9933 7.50738 7.03383C7.40436 7.07435 7.31054 7.13519 7.23153 7.21272C7.15252 7.29026 7.08992 7.3829 7.04746 7.48514C7.005 7.58737 6.98356 7.69712 6.9844 7.80781C6.98524 7.91851 7.00834 8.0279 7.05235 8.12948C7.09635 8.23107 7.16034 8.32275 7.24052 8.39908L9.85252 11.0611L7.24052 13.7221C7.08747 13.8782 7.00266 14.0887 7.00472 14.3074C7.00679 14.526 7.09556 14.7348 7.25152 14.8881Z" fill="white"/>
</svg>
