<svg xmlns="http://www.w3.org/2000/svg" width="37" height="37" viewBox="0 0 37 37">
    <g data-name="7787548_wrong_delete_remove_trash_minus_icon">
        <path data-name="Path 91678" d="M33.5 15a18.485 18.485 0 1 0 13.086 5.414A18.5 18.5 0 0 0 33.5 15zm0 32.647a14.119 14.119 0 1 1 10.012-4.135A14.147 14.147 0 0 1 33.5 47.647z" transform="translate(-15 -15)" style="fill:#ed344e"/>
        <path data-name="Path 91679" d="M82.028 71.654a2.1 2.1 0 0 0-3.047 0l-3.156 3.156-3.047-3.047a2.155 2.155 0 1 0-3.047 3.047l3.047 3.047-3.047 3.043a2.155 2.155 0 1 0 3.047 3.047l3.047-3.047 3.047 3.047A2.155 2.155 0 1 0 81.92 80.9l-3.047-3.047 3.047-3.047a2.344 2.344 0 0 0 .108-3.152z" transform="translate(-57.325 -58.813)" style="fill:#ed344e"/>
    </g>
</svg>
