<svg xmlns="http://www.w3.org/2000/svg" width="16" height="11.402" viewBox="0 0 16 11.402">
    <g data-name="296560_invite_share_envelope_send_letter_icon">
        <path data-name="Path 91654" d="m158.234 183.929-4.5-4.885 4.509-4.517a.148.148 0 0 1 .253.1v9.2a.148.148 0 0 1-.262.102zm-6.88-2.505a1.379 1.379 0 0 1-.976.4h-.012a1.406 1.406 0 0 1-.993-.411l-1.335-1.333-4.582 4.665a.148.148 0 0 0 .106.252h13.914a.148.148 0 0 0 .109-.248l-4.585-4.97zm-.987-.632a.368.368 0 0 0 .262-.109l6.821-6.832a.148.148 0 0 0-.1-.253h-13.984a.148.148 0 0 0-.1.253l6.844 6.833a.367.367 0 0 0 .256.108zm-7.875-5.888v8.986a.148.148 0 0 0 .254.1l4.56-4.642-4.561-4.553a.148.148 0 0 0-.254.105z" style="fill:#30c48d" transform="translate(-142.491 -173.599)"/>
    </g>
</svg>
