<svg xmlns="http://www.w3.org/2000/svg" width="18.391" height="16.276" viewBox="0 0 18.391 16.276"><g><g><g><g><path fill="#656565" d="M29.289 100.33c-2.4-3.63-5.619-5.63-9.069-5.63s-6.67 2-9.069 5.63a.767.767 0 0 0 0 .845c2.4 3.63 5.619 5.63 9.069 5.63s6.67-2 9.069-5.63a.767.767 0 0 0 0-.845zm-9.069 4.944c-2.785 0-5.435-1.6-7.5-4.519 2.065-2.92 4.715-4.519 7.5-4.519s5.435 1.6 7.5 4.519c-2.064 2.92-4.711 4.519-7.5 4.519z" transform="translate(-822 -420.048) translate(822 422.035) translate(-11.025 -94.7)"></path></g></g></g><g fill="#656565" stroke="#fafafa" transform="translate(-822 -420.048) translate(827.164 424.055)"><circle cx="4.036" cy="4.036" r="4.036" stroke="none"></circle><circle cx="4.036" cy="4.036" r="3.536" fill="none"></circle></g><path fill="none" stroke="#707070" stroke-linecap="round" stroke-width="2.25px" d="M11.981 0L0 11.981" transform="translate(-822 -420.048) translate(825.084 421.639)"></path><path fill="none" stroke="#fafafa" stroke-linecap="round" d="M13.978 0L0 13.978" transform="translate(-822 -420.048) translate(825.084 421.639)"></path></g></svg>