<svg xmlns="http://www.w3.org/2000/svg" width="17" height="15" viewBox="0 0 17 15">
    <g data-name="Group 10546">
        <g data-name="Polygon 5" style="fill:#ed344e">
            <path d="M13.568 14.75H3.432c-.63 0-1.195-.325-1.512-.869a1.733 1.733 0 0 1-.01-1.744l5.067-8.943A1.73 1.73 0 0 1 8.5 2.307a1.73 1.73 0 0 1 1.523.887l5.067 8.943c.31.548.307 1.2-.01 1.744a1.733 1.733 0 0 1-1.512.869z" style="stroke:none"/>
            <path d="M8.5 2.557c-.547 0-1.035.284-1.305.76L2.127 12.26a1.486 1.486 0 0 0 .01 1.495c.27.467.755.745 1.295.745h10.136c.54 0 1.024-.278 1.296-.745a1.486 1.486 0 0 0 .009-1.495L9.805 3.317a1.483 1.483 0 0 0-1.305-.76m0-.5a1.98 1.98 0 0 1 1.74 1.014l5.068 8.943C16.063 13.347 15.1 15 13.568 15H3.432c-1.532 0-2.495-1.653-1.74-2.986L6.76 3.071A1.98 1.98 0 0 1 8.5 2.057z" style="fill:#de233d;stroke:none"/>
        </g>
        <text data-name="!" transform="translate(7.12 12.369)" style="fill:#fff;font-size:9px;font-family:Rubik-Bold,Rubik;font-weight:700"><tspan x="0" y="0">!</tspan></text>
    </g>
</svg>
