<svg width="13" height="13" viewBox="0 0 13 13" fill="none" xmlns="http://www.w3.org/2000/svg">
<path d="M6.5 13C10.0899 13 13 10.0899 13 6.5C13 2.91015 10.0899 0 6.5 0C2.91015 0 0 2.91015 0 6.5C0 10.0899 2.91015 13 6.5 13Z" fill="#007AFF"/>
<path d="M6.5 12C9.53757 12 12 9.53757 12 6.5C12 3.46243 9.53757 1 6.5 1C3.46243 1 1 3.46243 1 6.5C1 9.53757 3.46243 12 6.5 12Z" fill="white"/>
<path d="M5.69505 8.67828V8.60573C5.70046 8.13222 5.75047 7.75545 5.84509 7.47542C5.94242 7.19539 6.08029 6.96881 6.25872 6.7957C6.43715 6.62259 6.65207 6.46476 6.90349 6.3222C7.06569 6.22546 7.21168 6.11726 7.34144 5.99761C7.47121 5.87796 7.57394 5.74049 7.64964 5.5852C7.72533 5.42991 7.76318 5.25807 7.76318 5.06969C7.76318 4.84312 7.70641 4.6471 7.59286 4.48162C7.47932 4.31615 7.32793 4.18886 7.13869 4.09976C6.95215 4.00811 6.74398 3.96229 6.51419 3.96229C6.30603 3.96229 6.10733 4.00302 5.91809 4.08449C5.72885 4.16595 5.57205 4.29324 5.44769 4.46635C5.32333 4.63691 5.25169 4.85712 5.23277 5.12697H4C4.01892 4.66874 4.14193 4.28178 4.36902 3.96611C4.59611 3.64789 4.89619 3.40732 5.26926 3.24439C5.64504 3.08146 6.06002 3 6.51419 3C7.01162 3 7.44688 3.08783 7.81995 3.26348C8.19303 3.4366 8.48229 3.67971 8.68775 3.99284C8.89592 4.30342 9 4.66619 9 5.08115C9 5.36627 8.95269 5.62339 8.85807 5.85251C8.76345 6.07908 8.62828 6.28146 8.45255 6.45967C8.27953 6.63787 8.07137 6.7957 7.82806 6.93317C7.59827 7.0681 7.41173 7.20811 7.26845 7.35322C7.12787 7.49833 7.02514 7.67017 6.96026 7.86874C6.89538 8.0673 6.86023 8.31297 6.85483 8.60573V8.67828H5.69505ZM6.30738 11C6.0857 11 5.89511 10.9262 5.7356 10.7785C5.5761 10.6283 5.49635 10.4476 5.49635 10.2363C5.49635 10.0275 5.5761 9.84932 5.7356 9.70167C5.89511 9.55147 6.0857 9.47637 6.30738 9.47637C6.52636 9.47637 6.7156 9.55147 6.8751 9.70167C7.03731 9.84932 7.11841 10.0275 7.11841 10.2363C7.11841 10.3763 7.08056 10.5049 7.00487 10.622C6.93187 10.7365 6.83455 10.8282 6.7129 10.8969C6.59124 10.9656 6.45607 11 6.30738 11Z" fill="#007AFF"/>
</svg>
