<svg xmlns="http://www.w3.org/2000/svg" width="13.65" height="12.708" viewBox="0 0 13.65 12.708">
    <g data-name="Group 10544">
        <g data-name="mail email e-mail letter">
            <path data-name="Path 91631" d="M15.238 13a.49.49 0 0 0-.49.49v3.916a.49.49 0 0 1-.49.49H4.469a.49.49 0 0 1-.49-.49V13.49a.49.49 0 0 0-.979 0v3.916a1.471 1.471 0 0 0 1.469 1.469h9.79a1.471 1.471 0 0 0 1.469-1.469V13.49a.49.49 0 0 0-.49-.49z" transform="translate(-2.538 -6.416)" style="fill:#6e6a65;stroke:#6e6a65;stroke-width:.5px"/>
        </g>
        <path data-name="Subtraction 1" d="M7089.364 22054.936a.473.473 0 0 1-.291-.1l-5.784-4.334h1.651l4.426 3.332 4.422-3.332h1.65l-5.779 4.334a.492.492 0 0 1-.295.1z" transform="translate(-7082.538 -22044.252)" style="fill:#6e6a65;stroke:#6e6a65;stroke-width:.5px"/>
        <path data-name="Subtraction 2" d="M6.075 0a.473.473 0 0 0-.291.1L0 4.434h1.651L6.077 1.1 10.5 4.434h1.65L6.371.1a.492.492 0 0 0-.296-.1z" transform="translate(.751 .25)" style="fill:#6e6a65;stroke:#6e6a65;stroke-width:.5px"/>
    </g>
</svg>
