<svg xmlns="http://www.w3.org/2000/svg" width="32" height="34" viewBox="0 0 32 34" fill="none">
  <path fill-rule="evenodd" clip-rule="evenodd" d="M13.6147 0.0850902C8.08055 0.612182 3.26255 4.1166 1.14944 9.1518C-2.34023 17.4675 2.42739 26.9282 11.2408 29.1768C12.5748 29.5171 13.4957 29.6254 15.0577 29.6254C17.7323 29.6254 20.4252 28.9077 22.5477 27.6292L23.2179 27.2254L26.3672 30.3276C28.0992 32.0337 29.665 33.5037 29.8467 33.5941C30.5217 33.9302 31.5015 33.6142 31.8497 32.9482C32.0332 32.5973 32.0525 31.8512 31.8864 31.5283C31.8216 31.4021 30.3954 29.9362 28.7172 28.2707L25.666 25.2426L26.2163 24.6413C27.3982 23.3497 28.6279 21.2367 29.2147 19.489C29.7599 17.8654 29.8967 16.9192 29.8924 14.8033C29.8891 13.1549 29.855 12.6932 29.6787 11.902C28.2071 5.30112 22.9266 0.667167 16.2061 0.0789701C14.9893 -0.0275576 14.793 -0.0270794 13.6147 0.0850902ZM17.0909 3.29402C21.3174 4.02499 24.857 7.04161 26.2195 11.0739C27.3211 14.3342 26.9568 17.9313 25.2364 20.7799C21.9805 26.1714 15.1312 28.1206 9.51775 25.2534C6.3579 23.6396 4.09946 20.6857 3.35074 17.1877C3.07786 15.9125 3.05717 13.8105 3.30616 12.6517C3.6973 10.8315 4.39941 9.2501 5.42768 7.87385C8.12987 4.25755 12.5733 2.51275 17.0909 3.29402ZM10.5422 9.26071C9.81132 9.41725 9.35617 9.97762 9.35559 10.7216C9.3554 10.9748 9.40336 11.276 9.46225 11.391C9.52113 11.5058 10.293 12.3206 11.1775 13.2016L12.7858 14.8033L11.2288 16.3572C10.3725 17.2118 9.60062 18.0176 9.5135 18.1476C9.27804 18.4993 9.30415 19.3369 9.56358 19.752C9.79169 20.1171 10.3913 20.4398 10.8476 20.4431C11.398 20.4473 11.9142 20.0709 13.4626 18.5362L15.0074 17.0049L16.7019 18.6695C18.5247 20.46 18.6697 20.5503 19.4794 20.4001C19.9554 20.3119 20.5338 19.7398 20.623 19.2691C20.775 18.4684 20.6836 18.325 18.873 16.5224L17.1898 14.8466L18.7382 13.3189C20.3077 11.7701 20.6687 11.2815 20.6687 10.7051C20.6687 10.2584 20.3406 9.69103 19.9411 9.4468C19.5476 9.2063 18.8115 9.16088 18.435 9.35385C18.3074 9.41926 17.474 10.1865 16.5832 11.0587L14.9635 12.6444L13.2955 11.0058C12.1283 9.85895 11.5405 9.34821 11.3375 9.30403C11.1779 9.26941 11.0039 9.2304 10.9507 9.21749C10.8975 9.20448 10.7137 9.22399 10.5422 9.26071Z" fill="#B4B4B4"/>
</svg>
