<svg xmlns="http://www.w3.org/2000/svg" width="46" height="44" viewBox="0 0 46 44" fill="none">
  <path fill-rule="evenodd" clip-rule="evenodd" d="M28.2604 0.0515507C28.0229 0.0942008 22.6068 2.22624 16.2246 4.78946C5.11739 9.25033 4.59901 9.46919 4.11393 9.9013C3.81731 10.1655 3.49575 10.5737 3.33885 10.8851L3.07074 11.4173L3.04531 26.2103L3.01988 41.0034L1.97247 41.035C1.09616 41.0614 0.881782 41.0981 0.660401 41.2594C0.156992 41.6262 0 41.925 0 42.5163C0 43.1078 0.157183 43.4067 0.660689 43.7732L0.925732 43.966L22.7737 43.9935C37.9012 44.0124 44.7296 43.9906 44.9726 43.9222C45.4076 43.7998 45.8869 43.2831 45.9711 42.8456C46.1239 42.0515 45.6573 41.2885 44.8976 41.0904L44.4805 40.9818L44.4551 28.7716L44.4297 16.5615L44.1607 16.0003C43.7206 15.0825 43.0493 14.5128 42.076 14.231C41.6394 14.1047 40.875 14.0829 36.8794 14.0829H32.1948L32.1936 8.49441C32.1924 2.46633 32.1842 2.35466 31.679 1.51447C31.0235 0.424272 29.5933 -0.187795 28.2604 0.0515507ZM29.1002 22.011L29.1245 41.0198H17.6087H6.09292L6.1172 26.5494L6.14148 12.0789L17.4648 7.52356C23.6927 5.01805 28.8529 2.9758 28.9321 2.98506C29.0595 3.00002 29.0788 5.19576 29.1002 22.011ZM13.1418 15.7095C12.5063 15.9825 12.141 16.6987 12.277 17.4052C12.3611 17.8421 12.8399 18.3589 13.2755 18.483C13.5079 18.5491 15.0416 18.5732 17.8178 18.5542C21.8775 18.5265 22.0174 18.5195 22.274 18.3328C22.7775 17.9662 22.9346 17.6674 22.9346 17.0759C22.9346 16.4844 22.7775 16.1856 22.274 15.819C22.0168 15.6318 21.8847 15.6255 17.7218 15.6049C14.3038 15.5881 13.3752 15.6092 13.1418 15.7095ZM41.3834 29.0712L41.4078 41.0198H36.8013H32.1948V29.0469V17.0741L36.7769 17.0983L41.359 17.1226L41.3834 29.0712ZM13.1418 21.6955C12.5063 21.9685 12.141 22.6847 12.277 23.3912C12.3611 23.8281 12.8399 24.3449 13.2755 24.4689C13.5079 24.5351 15.0416 24.5592 17.8178 24.5402C21.8775 24.5125 22.0174 24.5055 22.274 24.3187C22.7775 23.9522 22.9346 23.6534 22.9346 23.0619C22.9346 22.4704 22.7775 22.1715 22.274 21.805C22.0168 21.6177 21.8847 21.6115 17.7218 21.5909C14.3038 21.5741 13.3752 21.5952 13.1418 21.6955ZM13.1418 27.6815C12.5063 27.9545 12.141 28.6706 12.277 29.3772C12.3611 29.8141 12.8399 30.3309 13.2755 30.4549C13.5079 30.5211 15.0416 30.5452 17.8178 30.5262C21.8775 30.4985 22.0174 30.4915 22.274 30.3047C22.7775 29.9382 22.9346 29.6393 22.9346 29.0478C22.9346 28.4564 22.7775 28.1575 22.274 27.791C22.0168 27.6037 21.8847 27.5975 17.7218 27.5769C14.3038 27.5601 13.3752 27.5812 13.1418 27.6815ZM13.1418 33.6674C12.5063 33.9405 12.141 34.6566 12.277 35.3632C12.3611 35.8 12.8399 36.3169 13.2755 36.4409C13.5079 36.507 15.0416 36.5312 17.8178 36.5122C21.8775 36.4845 22.0174 36.4775 22.274 36.2907C22.7775 35.9242 22.9346 35.6253 22.9346 35.0338C22.9346 34.4423 22.7775 34.1435 22.274 33.777C22.0168 33.5897 21.8847 33.5835 17.7218 33.5629C14.3038 33.546 13.3752 33.5672 13.1418 33.6674Z" fill="#FF9933"/>
</svg>
