<svg width="15" height="15" viewBox="0 0 15 15" fill="none" xmlns="http://www.w3.org/2000/svg">
<path d="M7.5 14C11.0899 14 14 11.0899 14 7.5C14 3.91015 11.0899 1 7.5 1C3.91015 1 1 3.91015 1 7.5C1 11.0899 3.91015 14 7.5 14Z" fill="#4A5A87"/>
<path d="M7.50056 13.5363C10.834 13.5363 13.5363 10.834 13.5363 7.50056C13.5363 4.16712 10.834 1.46484 7.50056 1.46484C4.16712 1.46484 1.46484 4.16712 1.46484 7.50056C1.46484 10.834 4.16712 13.5363 7.50056 13.5363Z" stroke="#4A5A87"/>
<path d="M6.69505 9.67828V9.60573C6.70046 9.13222 6.75047 8.75545 6.84509 8.47542C6.94242 8.19539 7.08029 7.96881 7.25872 7.7957C7.43715 7.62259 7.65207 7.46476 7.90349 7.3222C8.06569 7.22546 8.21168 7.11726 8.34144 6.99761C8.47121 6.87796 8.57394 6.74049 8.64964 6.5852C8.72533 6.42991 8.76318 6.25807 8.76318 6.06969C8.76318 5.84312 8.70641 5.6471 8.59286 5.48162C8.47932 5.31615 8.32793 5.18886 8.13869 5.09976C7.95215 5.00811 7.74398 4.96229 7.51419 4.96229C7.30603 4.96229 7.10733 5.00302 6.91809 5.08449C6.72885 5.16595 6.57205 5.29324 6.44769 5.46635C6.32333 5.63691 6.25169 5.85712 6.23277 6.12697H5C5.01892 5.66874 5.14193 5.28178 5.36902 4.96611C5.59611 4.64789 5.89619 4.40732 6.26926 4.24439C6.64504 4.08146 7.06002 4 7.51419 4C8.01162 4 8.44688 4.08783 8.81995 4.26348C9.19303 4.4366 9.48229 4.67971 9.68775 4.99284C9.89592 5.30342 10 5.66619 10 6.08115C10 6.36627 9.95269 6.62339 9.85807 6.85251C9.76345 7.07908 9.62828 7.28146 9.45255 7.45967C9.27953 7.63787 9.07137 7.7957 8.82806 7.93317C8.59827 8.0681 8.41173 8.20811 8.26845 8.35322C8.12787 8.49833 8.02514 8.67017 7.96026 8.86874C7.89538 9.0673 7.86023 9.31297 7.85483 9.60573V9.67828H6.69505ZM7.30738 12C7.0857 12 6.89511 11.9262 6.7356 11.7785C6.5761 11.6283 6.49635 11.4476 6.49635 11.2363C6.49635 11.0275 6.5761 10.8493 6.7356 10.7017C6.89511 10.5515 7.0857 10.4764 7.30738 10.4764C7.52636 10.4764 7.7156 10.5515 7.8751 10.7017C8.03731 10.8493 8.11841 11.0275 8.11841 11.2363C8.11841 11.3763 8.08056 11.5049 8.00487 11.622C7.93187 11.7365 7.83455 11.8282 7.7129 11.8969C7.59124 11.9656 7.45607 12 7.30738 12Z" fill="white"/>
</svg>
