<svg width="14" height="14" viewBox="0 0 14 14" fill="none" xmlns="http://www.w3.org/2000/svg">
<path d="M7 14C10.866 14 14 10.866 14 7C14 3.13401 10.866 0 7 0C3.13401 0 0 3.13401 0 7C0 10.866 3.13401 14 7 14Z" fill="#007AFF"/>
<path d="M7 13.5C10.5899 13.5 13.5 10.5899 13.5 7C13.5 3.41015 10.5899 0.5 7 0.5C3.41015 0.5 0.5 3.41015 0.5 7C0.5 10.5899 3.41015 13.5 7 13.5Z" stroke="#007AFF"/>
<path d="M6.13404 9.34554V9.26741C6.13986 8.75747 6.19372 8.35172 6.29562 8.05015C6.40043 7.74858 6.54891 7.50458 6.74106 7.31815C6.93321 7.13172 7.16467 6.96175 7.43543 6.80822C7.61011 6.70404 7.76732 6.58752 7.90707 6.45867C8.04682 6.32981 8.15745 6.18177 8.23897 6.01453C8.32049 5.8473 8.36125 5.66224 8.36125 5.45937C8.36125 5.21537 8.30011 5.00426 8.17783 4.82606C8.05555 4.64786 7.89251 4.51078 7.68872 4.41483C7.48783 4.31613 7.26365 4.26678 7.01619 4.26678C6.79201 4.26678 6.57802 4.31065 6.37422 4.39838C6.17043 4.48611 6.00157 4.62319 5.86764 4.80961C5.73372 4.9933 5.65657 5.23044 5.63619 5.52105H4.30859C4.32897 5.02757 4.46144 4.61085 4.706 4.27089C4.95056 3.9282 5.27372 3.66912 5.67549 3.49366C6.08017 3.3182 6.52707 3.23047 7.01619 3.23047C7.55188 3.23047 8.02062 3.32505 8.42239 3.51422C8.82416 3.70065 9.13568 3.96247 9.35694 4.29968C9.58112 4.63415 9.69321 5.02483 9.69321 5.4717C9.69321 5.77876 9.64226 6.05566 9.54036 6.3024C9.43846 6.5464 9.29289 6.76435 9.10365 6.95626C8.91732 7.14817 8.69315 7.31815 8.43112 7.4662C8.18365 7.6115 7.98277 7.76228 7.82846 7.91855C7.67707 8.07482 7.56644 8.25988 7.49657 8.47372C7.42669 8.68756 7.38884 8.95213 7.38302 9.26741V9.34554H6.13404ZM6.79347 11.8459C6.55473 11.8459 6.34948 11.7663 6.17771 11.6073C6.00593 11.4456 5.92005 11.2509 5.92005 11.0234C5.92005 10.7986 6.00593 10.6067 6.17771 10.4477C6.34948 10.2859 6.55473 10.205 6.79347 10.205C7.02929 10.205 7.23308 10.2859 7.40486 10.4477C7.57954 10.6067 7.66688 10.7986 7.66688 11.0234C7.66688 11.1742 7.62612 11.3126 7.5446 11.4387C7.466 11.5621 7.36119 11.6608 7.23017 11.7348C7.09916 11.8088 6.95359 11.8459 6.79347 11.8459Z" fill="white"/>
</svg>

