<svg width="20" height="20" viewBox="0 0 20 20" fill="currentColor" xmlns="http://www.w3.org/2000/svg">
<path fill-rule="evenodd" clip-rule="evenodd" d="M9.13592 2.78175C8.03311 4.06116 6.48568 4.94856 4.78818 5.27501C4.41718 5.34635 3.86302 5.47336 3.55682 5.55712L3 5.7095L3.00159 8.62016C3.00329 11.896 3.0735 12.4065 3.69915 13.6938C4.48018 15.3012 6.05985 17.0548 7.87189 18.3262C9.09339 19.1833 9.85661 19.5699 10.168 19.4897C10.8468 19.3147 13.0012 17.7627 14.1724 16.6049C15.5131 15.2796 16.5954 13.4579 16.8828 12.0429C16.9512 11.7059 17 10.2698 17 8.59293V5.72029L16.6553 5.60494C16.4658 5.54143 15.9449 5.41835 15.4979 5.33121C13.5207 4.94606 12.3642 4.32683 11.0562 2.95308C10.557 2.42894 10.0723 2 9.97921 2C9.88599 2 9.5065 2.35171 9.13592 2.78175ZM10.5595 4.34818C11.6248 5.33187 13.0309 6.0427 14.7544 6.4687L15.7435 6.71334L15.708 9.33993C15.6741 11.8384 15.6598 11.9957 15.4159 12.5656C15.0669 13.3805 14.3792 14.4635 13.7755 15.1486C12.8222 16.2305 10.4208 18.1207 9.99968 18.1207C9.63589 18.1207 7.84103 16.7736 6.80683 15.7244C5.751 14.6532 4.98535 13.5666 4.57203 12.553C4.35089 12.0106 4.33011 11.7693 4.29468 9.34254L4.2565 6.71857L5.40482 6.42459C6.0363 6.26294 6.93485 5.94075 7.40152 5.70852C8.20599 5.30823 9.45824 4.42344 9.7743 4.03197C9.85438 3.93285 9.94283 3.8517 9.97094 3.8517C9.99894 3.8517 10.2638 4.0751 10.5595 4.34818ZM8.96379 6.58732C8.16908 6.99132 7.56061 7.9408 7.56061 8.7769C7.56061 9.54569 8.08179 10.3706 8.83959 10.801L9.35738 11.0951L9.38697 13.4253L9.41667 15.7555L9.70833 15.979L10 16.2027L10.2917 15.9798C10.5247 15.8017 10.5898 15.6551 10.6157 15.2505L10.648 14.7441H11.2043C11.8273 14.7441 12.0152 14.6167 12.0152 14.1945C12.0152 13.7696 11.7104 13.5459 11.1318 13.5459H10.6364V12.3006C10.6364 11.1732 10.6555 11.0492 10.8378 10.9897C11.5693 10.7513 12.2585 9.87159 12.3936 9.00379C12.6694 7.23204 10.5847 5.76331 8.96379 6.58732ZM10.7651 7.95867C11.1608 8.34796 11.1787 9.03581 10.8047 9.4824C10.5856 9.74404 10.4696 9.78804 10 9.78804C9.53036 9.78804 9.41444 9.74404 9.19532 9.4824C8.82252 9.03734 8.83885 8.34557 9.23106 7.97032C9.39153 7.81685 9.59432 7.66261 9.68182 7.62776C9.97073 7.51241 10.4651 7.66338 10.7651 7.95867Z" fill="currentColor"/>
</svg>
