<svg width="14" height="18" viewBox="0 0 14 18" fill="currentColor" xmlns="http://www.w3.org/2000/svg">
<path fill-rule="evenodd" fill="currentColor" clip-rule="evenodd" d="M6.13592 0.781745C5.03311 2.06116 3.48568 2.94856 1.78818 3.27501C1.41718 3.34635 0.863015 3.47336 0.556818 3.55712L0 3.7095L0.00159091 6.62016C0.00328788 9.89604 0.0735 10.4065 0.699152 11.6938C1.48018 13.3012 3.05985 15.0548 4.87189 16.3262C6.09339 17.1833 6.85661 17.5699 7.168 17.4897C7.84679 17.3147 10.0012 15.7627 11.1724 14.6049C12.5131 13.2796 13.5954 11.4579 13.8828 10.0429C13.9512 9.70586 14 8.26981 14 6.59293V3.72029L13.6553 3.60494C13.4658 3.54143 12.9449 3.41835 12.4979 3.33121C10.5207 2.94606 9.3642 2.32683 8.05615 0.953082C7.55703 0.428941 7.07233 0 6.97921 0C6.88599 0 6.5065 0.351714 6.13592 0.781745ZM7.55947 2.34818C8.62485 3.33187 10.0309 4.0427 11.7544 4.4687L12.7435 4.71334L12.708 7.33993C12.6741 9.83842 12.6598 9.99571 12.4159 10.5656C12.0669 11.3805 11.3792 12.4635 10.7755 13.1486C9.82217 14.2305 7.42085 16.1207 6.99968 16.1207C6.63589 16.1207 4.84103 14.7736 3.80683 13.7244C2.751 12.6532 1.98535 11.5666 1.57203 10.553C1.35089 10.0106 1.33011 9.76925 1.29468 7.34254L1.2565 4.71857L2.40482 4.42459C3.0363 4.26294 3.93485 3.94075 4.40152 3.70852C5.20599 3.30823 6.45824 2.42344 6.7743 2.03197C6.85438 1.93285 6.94283 1.8517 6.97094 1.8517C6.99894 1.8517 7.26377 2.0751 7.55947 2.34818ZM5.96379 4.58732C5.16908 4.99132 4.56061 5.9408 4.56061 6.7769C4.56061 7.54569 5.08179 8.37057 5.83959 8.80103L6.35738 9.09513L6.38697 11.4253L6.41667 13.7555L6.70833 13.979L7 14.2027L7.29167 13.9798C7.52468 13.8017 7.5898 13.6551 7.61568 13.2505L7.64803 12.7441H8.20432C8.82732 12.7441 9.01515 12.6167 9.01515 12.1945C9.01515 11.7696 8.71044 11.5459 8.13177 11.5459H7.63636V10.3006C7.63636 9.17322 7.65546 9.04916 7.83777 8.98969C8.56927 8.75125 9.25846 7.87159 9.39358 7.00379C9.66944 5.23204 7.58471 3.76331 5.96379 4.58732ZM7.76512 5.95867C8.16083 6.34796 8.17865 7.03581 7.80468 7.4824C7.58556 7.74404 7.46964 7.78804 7 7.78804C6.53036 7.78804 6.41444 7.74404 6.19532 7.4824C5.82252 7.03734 5.83885 6.34557 6.23106 5.97032C6.39153 5.81685 6.59432 5.66261 6.68182 5.62776C6.97073 5.51241 7.46508 5.66338 7.76512 5.95867Z" />
</svg>
