<svg width="44" height="53" viewBox="0 0 44 53" fill="none" xmlns="http://www.w3.org/2000/svg">
<g id="Frame 11600">
<path id="image 287 (Traced)" d="M19.7096 2.26754L19.7095 2.26755C16.5306 6.50275 10.499 9.61427 3.69341 10.5754C3.05831 10.6652 2.40762 10.7915 1.87245 10.9221C1.60478 10.9874 1.36845 11.0533 1.17872 11.1155C0.983817 11.1793 0.854722 11.2341 0.790012 11.2734L19.7096 2.26754ZM19.7096 2.26754C20.0744 1.78138 20.445 1.32523 20.7471 0.982789C20.8984 0.811259 21.0303 0.67084 21.1343 0.570218C21.1864 0.519751 21.2289 0.481886 21.2614 0.455897C21.2865 0.435858 21.2986 0.428695 21.3 0.427654C21.6124 0.307531 21.847 0.247875 22.0562 0.250057C22.258 0.252161 22.4566 0.312207 22.6943 0.472543C22.9383 0.637072 23.2181 0.903662 23.5747 1.31369C23.93 1.72219 24.3515 2.26118 24.8805 2.96118C25.4158 3.66956 26.3684 4.55188 27.463 5.40448C28.5611 6.25976 29.8187 7.09784 30.9757 7.71463L30.9757 7.71464C33.1308 8.86323 37.3696 10.1606 40.3066 10.5754C40.9417 10.6652 41.5924 10.7915 42.1275 10.9221C42.3952 10.9874 42.6315 11.0533 42.8213 11.1155C43.0163 11.1794 43.1454 11.2341 43.2101 11.2735L43.75 11.6022V20.195C43.75 28.0004 43.6854 29.1399 43.1746 31.0701C41.6172 36.9554 37.0331 42.9082 30.07 48.0243C28.4292 49.23 26.6003 50.4186 25.0746 51.305C24.3115 51.7483 23.6276 52.114 23.083 52.3681C22.8105 52.4952 22.5765 52.5926 22.3871 52.6578C22.191 52.7253 22.0653 52.75 22 52.75C21.9359 52.75 21.8112 52.7255 21.6158 52.6582C21.4274 52.5933 21.1944 52.4964 20.923 52.37C20.3809 52.1174 19.7002 51.7543 18.9424 51.3152C17.4272 50.4374 15.6173 49.2641 14.0133 48.0857C7.01424 42.943 2.37863 36.9391 0.825413 31.0701C0.3146 29.1399 0.25 28.0004 0.25 20.195V11.6022L0.789908 11.2735L19.7096 2.26754ZM21.294 0.429961L21.2942 0.42989L21.294 0.429961ZM23.6656 6.61546L23.4963 6.79936L23.6656 6.61546C23.2212 6.20617 22.8149 5.83864 22.5181 5.5761C22.37 5.44507 22.2479 5.33903 22.1616 5.26674C22.119 5.2311 22.0821 5.20117 22.0541 5.18014C22.0415 5.17064 22.0238 5.15775 22.0056 5.14691C21.9995 5.14328 21.9767 5.12965 21.9463 5.12003C21.9344 5.11625 21.8921 5.10311 21.8374 5.11006C21.8066 5.11397 21.763 5.1254 21.7203 5.15684C21.6986 5.17274 21.6806 5.19126 21.6661 5.21124C21.6628 5.2148 21.6581 5.21993 21.6516 5.22687C21.6317 5.24784 21.6017 5.27876 21.5617 5.31925C21.482 5.39987 21.3671 5.5143 21.2249 5.65445C20.9409 5.93453 20.5507 6.31506 20.1232 6.72837L20.2969 6.90812L20.1231 6.72838C17.0322 9.71641 12.1204 12.1469 6.84077 13.2823L3.90746 13.9128L3.71261 13.9547L3.71002 14.154L3.62525 20.6778L3.87523 20.6811L3.62525 20.6778C3.53283 27.8063 3.74483 29.7728 4.97567 32.6963L5.20608 32.5993L4.97568 32.6963C6.82048 37.0767 12.0964 42.8377 17.6236 46.5439C18.6126 47.207 19.3624 47.7088 19.9484 48.0769C20.532 48.4436 20.9671 48.6868 21.3242 48.8253C21.6892 48.9668 21.9858 49.0041 22.2859 48.948C22.571 48.8946 22.8421 48.7585 23.1479 48.6036C24.2895 48.0252 26.0939 46.7858 27.9262 45.3794C29.7618 43.9706 31.6433 42.3801 32.9404 41.0904L32.7642 40.9131L32.9404 41.0904C36.0952 37.9529 38.3487 34.6419 39.469 31.4712C39.86 30.365 40.0654 29.7558 40.1692 28.4897C40.2714 27.2427 40.2764 25.3464 40.2809 21.6582L40.29 14.159L40.2902 13.9565L40.0923 13.9142L37.159 13.2867C31.8876 12.1586 27.1233 9.79945 23.6656 6.61546ZM22.1053 5.43728C22.1028 5.44502 22.0998 5.45274 22.0964 5.46039C22.0995 5.45344 22.1026 5.44568 22.1053 5.43728ZM18.6181 26.4361L18.6181 26.4361C13.1467 23.8004 13.4396 16.3925 19.1654 13.9315L19.0667 13.7019L19.1654 13.9315C20.5973 13.316 22.6667 13.2154 24.3348 13.6905C25.0182 13.8852 25.8881 14.4105 26.6911 15.0787C27.4928 15.7459 28.1963 16.5292 28.5636 17.2139L28.5636 17.2139C30.3452 20.5337 28.9069 24.738 25.3819 26.4361L25.3819 26.4361L23.9448 27.1285L23.8033 27.1967V27.3538V31.1137V34.8737V35.1237H24.0533H25.6667C26.8798 35.1237 27.325 35.2614 27.6944 35.6126C28.0043 35.9072 28.1607 36.2494 28.1794 36.6023C28.1982 36.9571 28.079 37.346 27.7954 37.7307L27.7953 37.7308C27.627 37.9594 27.4872 38.0733 27.2355 38.1442C26.9556 38.2231 26.5361 38.2489 25.7966 38.2489H24.0533H23.8033V38.4989V39.9058C23.8033 40.4614 23.7663 40.8131 23.6723 41.0863C23.5814 41.3502 23.4306 41.5599 23.161 41.8161L23.1609 41.8162C22.7291 42.2268 22.3495 42.3988 22 42.3988C21.6505 42.3988 21.2709 42.2268 20.8391 41.8162L20.839 41.8161L20.1967 41.2057V34.3332V27.3538V27.1967L20.0552 27.1285L18.6181 26.4361ZM20.5595 16.9126L20.5594 16.9127C19.1484 17.497 18.23 18.7425 18.23 20.1454C18.23 21.2538 18.6144 22.2124 19.2865 22.8948C19.9589 23.5774 20.9049 23.969 22 23.969C26.1723 23.969 27.2557 18.4419 23.3724 16.8996C22.7852 16.6663 22.3768 16.531 21.9583 16.5329C21.5393 16.5347 21.1363 16.6739 20.5595 16.9126Z" fill="#FF8A15" stroke="white" stroke-width="0.5"/>
</g>
</svg>
