<svg xmlns="http://www.w3.org/2000/svg" width="32.634" height="31.556" viewBox="0 0 32.634 31.556">
    <g data-name="9310114_star_sparkle_stars_sparkles_icon">
        <path data-name="Path 91671" d="M12.853 5.849A12.4 12.4 0 0 1 0 18.705a12.4 12.4 0 0 1 12.853 12.852 12.4 12.4 0 0 1 12.854-12.852A12.4 12.4 0 0 1 12.853 5.849z"/>
        <path data-name="Path 91672" d="M25.905 0a6.492 6.492 0 0 1-6.729 6.725 6.492 6.492 0 0 1 6.729 6.729 6.492 6.492 0 0 1 6.729-6.729A6.492 6.492 0 0 1 25.905 0z"/>
    </g>
</svg>
