<svg xmlns="http://www.w3.org/2000/svg" width="36.696" height="32.886" viewBox="0 0 36.696 32.886">
    <g data-name="Group 1805">
        <path data-name="Exclusion 1" d="M15.152 30.089c-.082 0-.166 0-.248-.007a6.007 6.007 0 0 1-2.986-1.089c-.251-.168-.5-.349-.742-.524l-.022-.016a13.366 13.366 0 0 0-1.6-1.046 5.979 5.979 0 0 0-2.765-.689h-.134a4.768 4.768 0 0 0-1.089.11 1.594 1.594 0 0 0-.738 1.4 2.615 2.615 0 0 0 .24.96 2.494 2.494 0 0 1 .223.577c-.027 0-.1-.088-.235-.255-.541-.667-1.976-2.437-3.9-2.814a1.432 1.432 0 0 1-.907-2.206C5.041 17.44 5.64 14.921 7.87 5.551l.194-.81q.212-.895.448-1.873a1.443 1.443 0 0 1 .844-.995l2.7-1.125a1.431 1.431 0 0 1 .55-.109 1.465 1.465 0 0 1 .224.017A11.654 11.654 0 0 1 17.078 0h1.872a11.652 11.652 0 0 1 4.25.655 1.44 1.44 0 0 0-.828.438l-8.142.617-.571-.616a1.443 1.443 0 0 0-.826-.438 4.8 4.8 0 0 0-1.476.894c-1.065.973-1.6 2.727-1.6 5.212v10.192c0 2.487.54 4.241 1.6 5.214 1.121 1.027 3.046 1.547 5.723 1.547h1.87c2.677 0 4.6-.521 5.723-1.547 1.065-.975 1.6-2.729 1.6-5.214V6.761c0-2.484-.54-4.237-1.6-5.212A4.81 4.81 0 0 0 23.2.655a1.485 1.485 0 0 1 .223-.017 1.423 1.423 0 0 1 .55.11l2.7 1.125a1.443 1.443 0 0 1 .843.995c.5 2.079.922 3.935 1.229 5.291 1.712 7.518 2.352 10.33 6.676 16.69a1.431 1.431 0 0 1-.907 2.212 6.569 6.569 0 0 0-3.671 2.593c-.088.113-.126.161-.137.161a1.81 1.81 0 0 1 .158-.4l.1-.222a2.639 2.639 0 0 0 .239-.96 1.549 1.549 0 0 0-.534-1.24 8.264 8.264 0 0 0-1.81-.228h-.193a2.853 2.853 0 0 0-2.349.953 4.069 4.069 0 0 0-.243.37l-.01.018a3.536 3.536 0 0 1-.3.442 1.081 1.081 0 0 1-.881.433 3.639 3.639 0 0 1-1.5-.509c-.2-.1-.358-.181-.514-.247a4.7 4.7 0 0 0-1.82-.425 3.008 3.008 0 0 0-.523.045 6.256 6.256 0 0 0-2.254 1.087c-.157.1-.314.205-.471.3a4.888 4.888 0 0 1-2.649.857z" transform="translate(.514 2.296)" style="fill:#f93;stroke:transparent"/>
        <g data-name="Group 4056">
            <path data-name="Path 14227" d="m698.042 465.8.132-2.219 2-.58.818 2.588a3.859 3.859 0 0 0-2.95.211z" transform="translate(-678.166 -435.271)" style="fill:#db902e"/>
            <path data-name="Path 14229" d="M660.3 446.129c0 .052 0 .829.005.892-1.6-.285-2.913.241-2.872 1.44h-.014v-.343c-.066-2.316 1.075-4.255 1.718-6.4.527-1.77.767-7.157 1.194-5.377a11.766 11.766 0 0 1-.03 4.568 18.91 18.91 0 0 0 0 2.6z" transform="translate(-652.086 -417.933)" style="fill:#db902e"/>
            <path data-name="Path 14231" d="M722.659 446.129c0 .052 0 .829-.006.892 1.4.073 2.914.241 2.873 1.44h.014v-.343c.066-2.316-1.075-4.255-1.717-6.4-.527-1.77-.767-7.157-1.194-5.377a11.747 11.747 0 0 0 .031 4.568 18.949 18.949 0 0 1 0 2.6z" transform="translate(-693.809 -417.933)" style="fill:#db902e"/>
        </g>
        <g data-name="Group 1803">
            <path data-name="Path 14233" d="M676.281 390.166c2.834 0 3.862.661 4.172.945.546.5.86 1.784.86 3.521v10.191c0 1.737-.313 3.021-.86 3.522-.31.284-1.337.945-4.172.945h-1.869c-2.834 0-3.862-.661-4.173-.946-.546-.5-.859-1.783-.859-3.52v-10.192c0-1.737.313-3.021.859-3.521.311-.284 1.339-.945 4.172-.945h1.869m0-4.593h-1.869q-4.925 0-7.275 2.151t-2.35 6.908v10.191q0 4.756 2.35 6.908t7.275 2.151h1.869q4.926 0 7.275-2.151t2.35-6.908v-10.191q0-4.757-2.35-6.908t-7.275-2.151z" transform="translate(-656.821 -385.573)" style="fill:#222"/>
        </g>
        <g data-name="Group 1804" transform="translate(16.537 12.48)">
            <circle data-name="Ellipse 669" cx="1.99" cy="1.99" style="fill:#222" r="1.99"/>
            <path data-name="Path 14234" d="M692.783 431.861h-1.86a.42.42 0 0 1-.418-.461l.382-3.935a.42.42 0 0 1 .418-.379h1.095a.42.42 0 0 1 .418.379l.383 3.935a.42.42 0 0 1-.418.461z" transform="translate(-689.864 -424.698)" style="fill:#222"/>
        </g>
    </g>
</svg>
